<svg width="435" height="358" viewBox="0 0 435 358" fill="none" xmlns="http://www.w3.org/2000/svg">
<g filter="url(#filter0_d_2152_2362)">
<rect x="14.2002" y="14.2031" width="400" height="323" rx="32" fill="#5A2FD8"/>
</g>
<path d="M47.8994 203.203V189.111H56.4541V190.693H49.6572V195.537H55.8975V197.1H49.6572V203.203H47.8994ZM58.8955 203.203V192.764H60.5947V194.365H60.7314C60.9202 193.805 61.249 193.369 61.7178 193.057C62.1865 192.738 62.7594 192.578 63.4365 192.578C63.5928 192.578 63.7458 192.588 63.8955 192.607C64.0452 192.62 64.1624 192.633 64.2471 192.646V194.297C64.0973 194.264 63.9378 194.242 63.7686 194.229C63.6058 194.209 63.4268 194.199 63.2314 194.199C62.7171 194.199 62.2614 194.303 61.8643 194.512C61.4671 194.72 61.1546 195.016 60.9268 195.4C60.7054 195.778 60.5947 196.224 60.5947 196.738V203.203H58.8955ZM70.1553 203.389C69.1722 203.389 68.3193 203.171 67.5967 202.734C66.874 202.298 66.3141 201.676 65.917 200.869C65.5264 200.062 65.3311 199.102 65.3311 197.988V197.969C65.3311 196.855 65.5264 195.895 65.917 195.088C66.3141 194.281 66.874 193.662 67.5967 193.232C68.3193 192.796 69.1689 192.578 70.1455 192.578C71.1351 192.578 71.988 192.796 72.7041 193.232C73.4268 193.662 73.9834 194.281 74.374 195.088C74.7712 195.895 74.9697 196.855 74.9697 197.969V197.988C74.9697 199.102 74.7712 200.062 74.374 200.869C73.9834 201.676 73.4268 202.298 72.7041 202.734C71.988 203.171 71.1383 203.389 70.1553 203.389ZM70.1553 201.885C70.7998 201.885 71.3499 201.732 71.8057 201.426C72.2679 201.113 72.6195 200.667 72.8604 200.088C73.1077 199.508 73.2314 198.809 73.2314 197.988V197.969C73.2314 197.148 73.1077 196.449 72.8604 195.869C72.6195 195.29 72.2679 194.847 71.8057 194.541C71.3499 194.235 70.7965 194.082 70.1455 194.082C69.501 194.082 68.9476 194.235 68.4854 194.541C68.0296 194.847 67.6781 195.29 67.4307 195.869C67.1898 196.449 67.0693 197.148 67.0693 197.969V197.988C67.0693 198.809 67.1898 199.508 67.4307 200.088C67.6781 200.667 68.0296 201.113 68.4854 201.426C68.9476 201.732 69.5042 201.885 70.1553 201.885ZM77.3916 203.203V192.764H79.0908V194.336H79.2275C79.4554 193.789 79.8135 193.359 80.3018 193.047C80.79 192.734 81.3727 192.578 82.0498 192.578C82.5251 192.578 82.9482 192.656 83.3193 192.812C83.6969 192.969 84.0225 193.187 84.2959 193.467C84.5693 193.74 84.7874 194.066 84.9502 194.443H85.0771C85.266 194.066 85.5199 193.737 85.8389 193.457C86.1579 193.177 86.5257 192.962 86.9424 192.812C87.359 192.656 87.8083 192.578 88.29 192.578C88.9932 192.578 89.5921 192.712 90.0869 192.979C90.5882 193.245 90.9691 193.636 91.2295 194.15C91.4964 194.658 91.6299 195.27 91.6299 195.986V203.203H89.9307V196.377C89.9307 195.869 89.8493 195.446 89.6865 195.107C89.5303 194.769 89.2894 194.515 88.9639 194.346C88.6383 194.17 88.2347 194.082 87.7529 194.082C87.2777 194.082 86.8577 194.193 86.4932 194.414C86.1351 194.629 85.8551 194.919 85.6533 195.283C85.4515 195.648 85.3506 196.058 85.3506 196.514V203.203H83.6514V196.133C83.6514 195.723 83.5635 195.365 83.3877 195.059C83.2119 194.746 82.9613 194.505 82.6357 194.336C82.3102 194.167 81.9294 194.082 81.4932 194.082C81.0374 194.082 80.6273 194.199 80.2627 194.434C79.9046 194.668 79.6182 194.984 79.4033 195.381C79.195 195.778 79.0908 196.224 79.0908 196.719V203.203H77.3916ZM100.429 203.203V194.17H98.7588V192.764H100.429V191.572C100.429 190.882 100.539 190.312 100.761 189.863C100.989 189.408 101.324 189.072 101.767 188.857C102.209 188.636 102.759 188.525 103.417 188.525C103.619 188.525 103.814 188.532 104.003 188.545C104.192 188.558 104.368 188.581 104.53 188.613V189.971C104.426 189.958 104.306 189.948 104.169 189.941C104.032 189.935 103.892 189.932 103.749 189.932C103.176 189.932 102.759 190.072 102.499 190.352C102.245 190.632 102.118 191.051 102.118 191.611V192.764H104.442V194.17H102.128V203.203H100.429ZM110.468 203.389C109.485 203.389 108.632 203.171 107.909 202.734C107.187 202.298 106.627 201.676 106.229 200.869C105.839 200.062 105.644 199.102 105.644 197.988V197.969C105.644 196.855 105.839 195.895 106.229 195.088C106.627 194.281 107.187 193.662 107.909 193.232C108.632 192.796 109.481 192.578 110.458 192.578C111.448 192.578 112.3 192.796 113.017 193.232C113.739 193.662 114.296 194.281 114.687 195.088C115.084 195.895 115.282 196.855 115.282 197.969V197.988C115.282 199.102 115.084 200.062 114.687 200.869C114.296 201.676 113.739 202.298 113.017 202.734C112.3 203.171 111.451 203.389 110.468 203.389ZM110.468 201.885C111.112 201.885 111.662 201.732 112.118 201.426C112.58 201.113 112.932 200.667 113.173 200.088C113.42 199.508 113.544 198.809 113.544 197.988V197.969C113.544 197.148 113.42 196.449 113.173 195.869C112.932 195.29 112.58 194.847 112.118 194.541C111.662 194.235 111.109 194.082 110.458 194.082C109.813 194.082 109.26 194.235 108.798 194.541C108.342 194.847 107.991 195.29 107.743 195.869C107.502 196.449 107.382 197.148 107.382 197.969V197.988C107.382 198.809 107.502 199.508 107.743 200.088C107.991 200.667 108.342 201.113 108.798 201.426C109.26 201.732 109.817 201.885 110.468 201.885ZM121.22 203.389C120.438 203.389 119.778 203.239 119.237 202.939C118.703 202.633 118.3 202.191 118.026 201.611C117.759 201.032 117.626 200.339 117.626 199.531V192.764H119.325V199.141C119.325 200.059 119.511 200.745 119.882 201.201C120.253 201.657 120.852 201.885 121.679 201.885C122.128 201.885 122.525 201.816 122.87 201.68C123.215 201.543 123.508 201.348 123.749 201.094C123.99 200.84 124.169 200.531 124.286 200.166C124.41 199.801 124.472 199.391 124.472 198.936V192.764H126.171V203.203H124.472V201.66H124.345C124.175 202.018 123.944 202.327 123.651 202.588C123.358 202.848 123.007 203.047 122.597 203.184C122.193 203.32 121.734 203.389 121.22 203.389ZM129.11 203.203V192.764H130.81V194.316H130.946C131.213 193.776 131.597 193.353 132.099 193.047C132.606 192.734 133.248 192.578 134.022 192.578C135.188 192.578 136.086 192.917 136.718 193.594C137.349 194.264 137.665 195.212 137.665 196.436V203.203H135.966V196.826C135.966 195.902 135.767 195.215 135.37 194.766C134.973 194.31 134.361 194.082 133.534 194.082C132.981 194.082 132.499 194.202 132.089 194.443C131.685 194.684 131.369 195.026 131.142 195.469C130.92 195.905 130.81 196.426 130.81 197.031V203.203H129.11ZM144.394 203.389C143.508 203.389 142.737 203.167 142.079 202.725C141.422 202.275 140.91 201.647 140.546 200.84C140.181 200.026 139.999 199.076 139.999 197.988V197.969C139.999 196.882 140.181 195.934 140.546 195.127C140.91 194.32 141.422 193.695 142.079 193.252C142.737 192.803 143.505 192.578 144.384 192.578C144.866 192.578 145.318 192.656 145.741 192.812C146.164 192.962 146.542 193.174 146.874 193.447C147.206 193.721 147.466 194.049 147.655 194.434H147.792V188.643H149.491V203.203H147.792V201.514H147.655C147.447 201.904 147.18 202.24 146.854 202.52C146.529 202.799 146.158 203.014 145.741 203.164C145.331 203.314 144.882 203.389 144.394 203.389ZM144.765 201.885C145.39 201.885 145.93 201.729 146.386 201.416C146.848 201.097 147.203 200.645 147.45 200.059C147.698 199.473 147.821 198.783 147.821 197.988V197.969C147.821 197.174 147.694 196.488 147.44 195.908C147.193 195.322 146.841 194.873 146.386 194.561C145.93 194.242 145.39 194.082 144.765 194.082C144.14 194.082 143.599 194.238 143.144 194.551C142.688 194.863 142.34 195.309 142.099 195.889C141.858 196.468 141.737 197.161 141.737 197.969V197.988C141.737 198.796 141.858 199.492 142.099 200.078C142.34 200.658 142.688 201.104 143.144 201.416C143.599 201.729 144.14 201.885 144.765 201.885ZM155.438 203.389C154.774 203.389 154.179 203.262 153.651 203.008C153.131 202.754 152.717 202.396 152.411 201.934C152.112 201.465 151.962 200.915 151.962 200.283V200.264C151.962 199.645 152.108 199.118 152.401 198.682C152.701 198.239 153.134 197.891 153.7 197.637C154.267 197.383 154.953 197.233 155.761 197.188L159.599 196.963V198.311L155.966 198.535C155.191 198.581 154.618 198.747 154.247 199.033C153.882 199.32 153.7 199.72 153.7 200.234V200.254C153.7 200.775 153.896 201.182 154.286 201.475C154.683 201.768 155.188 201.914 155.8 201.914C156.366 201.914 156.871 201.8 157.313 201.572C157.763 201.344 158.114 201.032 158.368 200.635C158.622 200.238 158.749 199.792 158.749 199.297V196.084C158.749 195.439 158.554 194.945 158.163 194.6C157.772 194.255 157.193 194.082 156.425 194.082C155.787 194.082 155.266 194.202 154.862 194.443C154.459 194.678 154.192 195.007 154.062 195.43L154.052 195.469H152.372L152.382 195.4C152.46 194.847 152.678 194.359 153.036 193.936C153.394 193.512 153.866 193.18 154.452 192.939C155.038 192.699 155.712 192.578 156.474 192.578C157.313 192.578 158.03 192.718 158.622 192.998C159.221 193.271 159.674 193.669 159.979 194.189C160.292 194.704 160.448 195.319 160.448 196.035V203.203H158.749V201.631H158.622C158.407 202.002 158.14 202.321 157.821 202.588C157.502 202.848 157.144 203.047 156.747 203.184C156.35 203.32 155.914 203.389 155.438 203.389ZM166.972 203.311C165.924 203.311 165.159 203.092 164.677 202.656C164.201 202.214 163.964 201.497 163.964 200.508V194.17H162.343V192.764H163.964V190.039H165.722V192.764H167.938V194.17H165.722V200.176C165.722 200.775 165.839 201.201 166.073 201.455C166.308 201.702 166.688 201.826 167.216 201.826C167.353 201.826 167.473 201.823 167.577 201.816C167.681 201.81 167.802 201.8 167.938 201.787V203.223C167.789 203.242 167.632 203.262 167.47 203.281C167.307 203.301 167.141 203.311 166.972 203.311ZM170.36 203.203V192.764H172.06V203.203H170.36ZM171.22 190.811C170.907 190.811 170.637 190.697 170.409 190.469C170.181 190.241 170.067 189.971 170.067 189.658C170.067 189.339 170.181 189.069 170.409 188.848C170.637 188.626 170.907 188.516 171.22 188.516C171.539 188.516 171.809 188.626 172.03 188.848C172.252 189.069 172.362 189.339 172.362 189.658C172.362 189.971 172.252 190.241 172.03 190.469C171.809 190.697 171.539 190.811 171.22 190.811ZM179.354 203.389C178.371 203.389 177.519 203.171 176.796 202.734C176.073 202.298 175.513 201.676 175.116 200.869C174.726 200.062 174.53 199.102 174.53 197.988V197.969C174.53 196.855 174.726 195.895 175.116 195.088C175.513 194.281 176.073 193.662 176.796 193.232C177.519 192.796 178.368 192.578 179.345 192.578C180.334 192.578 181.187 192.796 181.903 193.232C182.626 193.662 183.183 194.281 183.573 195.088C183.97 195.895 184.169 196.855 184.169 197.969V197.988C184.169 199.102 183.97 200.062 183.573 200.869C183.183 201.676 182.626 202.298 181.903 202.734C181.187 203.171 180.338 203.389 179.354 203.389ZM179.354 201.885C179.999 201.885 180.549 201.732 181.005 201.426C181.467 201.113 181.819 200.667 182.06 200.088C182.307 199.508 182.431 198.809 182.431 197.988V197.969C182.431 197.148 182.307 196.449 182.06 195.869C181.819 195.29 181.467 194.847 181.005 194.541C180.549 194.235 179.996 194.082 179.345 194.082C178.7 194.082 178.147 194.235 177.685 194.541C177.229 194.847 176.877 195.29 176.63 195.869C176.389 196.449 176.269 197.148 176.269 197.969V197.988C176.269 198.809 176.389 199.508 176.63 200.088C176.877 200.667 177.229 201.113 177.685 201.426C178.147 201.732 178.703 201.885 179.354 201.885ZM186.591 203.203V192.764H188.29V194.316H188.427C188.694 193.776 189.078 193.353 189.579 193.047C190.087 192.734 190.728 192.578 191.503 192.578C192.668 192.578 193.567 192.917 194.198 193.594C194.83 194.264 195.146 195.212 195.146 196.436V203.203H193.446V196.826C193.446 195.902 193.248 195.215 192.851 194.766C192.453 194.31 191.841 194.082 191.015 194.082C190.461 194.082 189.979 194.202 189.569 194.443C189.166 194.684 188.85 195.026 188.622 195.469C188.401 195.905 188.29 196.426 188.29 197.031V203.203H186.591ZM206.913 203.311C205.865 203.311 205.1 203.092 204.618 202.656C204.143 202.214 203.905 201.497 203.905 200.508V194.17H202.284V192.764H203.905V190.039H205.663V192.764H207.88V194.17H205.663V200.176C205.663 200.775 205.78 201.201 206.015 201.455C206.249 201.702 206.63 201.826 207.157 201.826C207.294 201.826 207.414 201.823 207.519 201.816C207.623 201.81 207.743 201.8 207.88 201.787V203.223C207.73 203.242 207.574 203.262 207.411 203.281C207.248 203.301 207.082 203.311 206.913 203.311ZM214.374 203.389C213.391 203.389 212.538 203.171 211.815 202.734C211.093 202.298 210.533 201.676 210.136 200.869C209.745 200.062 209.55 199.102 209.55 197.988V197.969C209.55 196.855 209.745 195.895 210.136 195.088C210.533 194.281 211.093 193.662 211.815 193.232C212.538 192.796 213.388 192.578 214.364 192.578C215.354 192.578 216.207 192.796 216.923 193.232C217.646 193.662 218.202 194.281 218.593 195.088C218.99 195.895 219.188 196.855 219.188 197.969V197.988C219.188 199.102 218.99 200.062 218.593 200.869C218.202 201.676 217.646 202.298 216.923 202.734C216.207 203.171 215.357 203.389 214.374 203.389ZM214.374 201.885C215.019 201.885 215.569 201.732 216.024 201.426C216.487 201.113 216.838 200.667 217.079 200.088C217.326 199.508 217.45 198.809 217.45 197.988V197.969C217.45 197.148 217.326 196.449 217.079 195.869C216.838 195.29 216.487 194.847 216.024 194.541C215.569 194.235 215.015 194.082 214.364 194.082C213.72 194.082 213.166 194.235 212.704 194.541C212.248 194.847 211.897 195.29 211.649 195.869C211.409 196.449 211.288 197.148 211.288 197.969V197.988C211.288 198.809 211.409 199.508 211.649 200.088C211.897 200.667 212.248 201.113 212.704 201.426C213.166 201.732 213.723 201.885 214.374 201.885ZM227.558 203.203V194.17H225.888V192.764H227.558V191.572C227.558 190.882 227.668 190.312 227.89 189.863C228.118 189.408 228.453 189.072 228.896 188.857C229.338 188.636 229.888 188.525 230.546 188.525C230.748 188.525 230.943 188.532 231.132 188.545C231.321 188.558 231.496 188.581 231.659 188.613V189.971C231.555 189.958 231.435 189.948 231.298 189.941C231.161 189.935 231.021 189.932 230.878 189.932C230.305 189.932 229.888 190.072 229.628 190.352C229.374 190.632 229.247 191.051 229.247 191.611V192.764H231.571V194.17H229.257V203.203H227.558ZM233.915 203.203V192.764H235.614V203.203H233.915ZM234.774 190.811C234.462 190.811 234.192 190.697 233.964 190.469C233.736 190.241 233.622 189.971 233.622 189.658C233.622 189.339 233.736 189.069 233.964 188.848C234.192 188.626 234.462 188.516 234.774 188.516C235.093 188.516 235.364 188.626 235.585 188.848C235.806 189.069 235.917 189.339 235.917 189.658C235.917 189.971 235.806 190.241 235.585 190.469C235.364 190.697 235.093 190.811 234.774 190.811ZM238.603 203.203V192.764H240.302V194.316H240.438C240.705 193.776 241.09 193.353 241.591 193.047C242.099 192.734 242.74 192.578 243.515 192.578C244.68 192.578 245.578 192.917 246.21 193.594C246.841 194.264 247.157 195.212 247.157 196.436V203.203H245.458V196.826C245.458 195.902 245.259 195.215 244.862 194.766C244.465 194.31 243.853 194.082 243.026 194.082C242.473 194.082 241.991 194.202 241.581 194.443C241.177 194.684 240.862 195.026 240.634 195.469C240.412 195.905 240.302 196.426 240.302 197.031V203.203H238.603ZM250.067 203.203V192.764H251.767V203.203H250.067ZM250.927 190.811C250.614 190.811 250.344 190.697 250.116 190.469C249.888 190.241 249.774 189.971 249.774 189.658C249.774 189.339 249.888 189.069 250.116 188.848C250.344 188.626 250.614 188.516 250.927 188.516C251.246 188.516 251.516 188.626 251.737 188.848C251.959 189.069 252.069 189.339 252.069 189.658C252.069 189.971 251.959 190.241 251.737 190.469C251.516 190.697 251.246 190.811 250.927 190.811ZM258.368 203.389C257.587 203.389 256.897 203.268 256.298 203.027C255.705 202.786 255.23 202.448 254.872 202.012C254.521 201.576 254.312 201.064 254.247 200.479V200.459H255.976V200.479C256.112 200.934 256.382 201.299 256.786 201.572C257.196 201.839 257.74 201.973 258.417 201.973C258.892 201.973 259.306 201.908 259.657 201.777C260.009 201.641 260.285 201.452 260.487 201.211C260.689 200.97 260.79 200.693 260.79 200.381V200.361C260.79 200.003 260.653 199.704 260.38 199.463C260.106 199.215 259.654 199.014 259.022 198.857L257.392 198.467C256.741 198.311 256.203 198.109 255.78 197.861C255.357 197.607 255.045 197.298 254.843 196.934C254.641 196.562 254.54 196.13 254.54 195.635V195.625C254.54 195.039 254.706 194.518 255.038 194.062C255.377 193.6 255.839 193.239 256.425 192.979C257.011 192.712 257.672 192.578 258.407 192.578C259.149 192.578 259.8 192.699 260.36 192.939C260.927 193.174 261.379 193.506 261.718 193.936C262.063 194.365 262.268 194.867 262.333 195.439L262.343 195.469H260.683V195.449C260.578 195.02 260.331 194.671 259.94 194.404C259.55 194.131 259.039 193.994 258.407 193.994C257.991 193.994 257.623 194.059 257.304 194.189C256.985 194.32 256.734 194.502 256.552 194.736C256.369 194.964 256.278 195.234 256.278 195.547V195.566C256.278 195.794 256.337 196.003 256.454 196.191C256.578 196.374 256.767 196.533 257.021 196.67C257.274 196.807 257.6 196.924 257.997 197.021L259.618 197.412C260.621 197.653 261.356 197.998 261.825 198.447C262.294 198.89 262.528 199.486 262.528 200.234V200.254C262.528 200.872 262.346 201.419 261.981 201.895C261.617 202.363 261.122 202.731 260.497 202.998C259.872 203.258 259.162 203.389 258.368 203.389ZM265.048 203.203V188.643H266.747V194.355H266.874C267.147 193.789 267.538 193.353 268.046 193.047C268.554 192.734 269.195 192.578 269.97 192.578C270.738 192.578 271.396 192.734 271.942 193.047C272.489 193.359 272.909 193.812 273.202 194.404C273.495 194.99 273.642 195.697 273.642 196.523V203.203H271.942V196.914C271.942 195.97 271.734 195.264 271.317 194.795C270.907 194.32 270.289 194.082 269.462 194.082C268.915 194.082 268.437 194.202 268.026 194.443C267.623 194.684 267.307 195.026 267.079 195.469C266.858 195.911 266.747 196.436 266.747 197.041V203.203H265.048ZM276.005 206.592L276.864 201.221H278.759L277.255 206.592H276.005ZM289.11 203.203L286.19 192.764H287.88L289.94 201.143H290.077L292.411 192.764H294.032L296.376 201.143H296.503L298.563 192.764H300.253L297.323 203.203H295.614L293.271 195.127H293.144L290.819 203.203H289.11ZM306.278 203.389C305.282 203.389 304.426 203.171 303.71 202.734C302.994 202.292 302.444 201.67 302.06 200.869C301.675 200.062 301.483 199.111 301.483 198.018V198.008C301.483 196.934 301.675 195.99 302.06 195.176C302.444 194.362 302.987 193.727 303.69 193.271C304.4 192.809 305.227 192.578 306.171 192.578C307.115 192.578 307.929 192.799 308.612 193.242C309.296 193.678 309.82 194.29 310.185 195.078C310.549 195.859 310.731 196.771 310.731 197.812V198.467H302.353V197.109H309.872L309.032 198.35V197.686C309.032 196.865 308.909 196.191 308.661 195.664C308.414 195.137 308.075 194.743 307.646 194.482C307.216 194.222 306.721 194.092 306.161 194.092C305.601 194.092 305.1 194.229 304.657 194.502C304.215 194.775 303.863 195.179 303.603 195.713C303.349 196.247 303.222 196.904 303.222 197.686V198.35C303.222 199.092 303.345 199.727 303.593 200.254C303.847 200.775 304.205 201.175 304.667 201.455C305.136 201.735 305.686 201.875 306.317 201.875C306.78 201.875 307.183 201.81 307.528 201.68C307.88 201.549 308.17 201.383 308.397 201.182C308.625 200.973 308.785 200.755 308.876 200.527L308.915 200.439H310.604L310.585 200.518C310.5 200.889 310.341 201.247 310.106 201.592C309.872 201.93 309.573 202.236 309.208 202.51C308.843 202.783 308.414 202.998 307.919 203.154C307.424 203.311 306.877 203.389 306.278 203.389ZM51.3076 227.311C50.2594 227.311 49.4945 227.092 49.0127 226.656C48.5374 226.214 48.2998 225.497 48.2998 224.508V218.17H46.6787V216.764H48.2998V214.039H50.0576V216.764H52.2744V218.17H50.0576V224.176C50.0576 224.775 50.1748 225.201 50.4092 225.455C50.6436 225.702 51.0244 225.826 51.5518 225.826C51.6885 225.826 51.8089 225.823 51.9131 225.816C52.0173 225.81 52.1377 225.8 52.2744 225.787V227.223C52.1247 227.242 51.9684 227.262 51.8057 227.281C51.6429 227.301 51.4769 227.311 51.3076 227.311ZM54.7354 227.203V212.643H56.4346V218.355H56.5615C56.835 217.789 57.2256 217.353 57.7334 217.047C58.2412 216.734 58.8825 216.578 59.6572 216.578C60.4255 216.578 61.083 216.734 61.6299 217.047C62.1768 217.359 62.5967 217.812 62.8896 218.404C63.1826 218.99 63.3291 219.697 63.3291 220.523V227.203H61.6299V220.914C61.6299 219.97 61.4215 219.264 61.0049 218.795C60.5947 218.32 59.9762 218.082 59.1494 218.082C58.6025 218.082 58.124 218.202 57.7139 218.443C57.3102 218.684 56.9945 219.026 56.7666 219.469C56.5452 219.911 56.4346 220.436 56.4346 221.041V227.203H54.7354ZM70.4873 227.389C69.5042 227.389 68.6514 227.171 67.9287 226.734C67.2061 226.298 66.6462 225.676 66.249 224.869C65.8584 224.062 65.6631 223.102 65.6631 221.988V221.969C65.6631 220.855 65.8584 219.895 66.249 219.088C66.6462 218.281 67.2061 217.662 67.9287 217.232C68.6514 216.796 69.501 216.578 70.4775 216.578C71.4671 216.578 72.32 216.796 73.0361 217.232C73.7588 217.662 74.3154 218.281 74.7061 219.088C75.1032 219.895 75.3018 220.855 75.3018 221.969V221.988C75.3018 223.102 75.1032 224.062 74.7061 224.869C74.3154 225.676 73.7588 226.298 73.0361 226.734C72.32 227.171 71.4704 227.389 70.4873 227.389ZM70.4873 225.885C71.1318 225.885 71.682 225.732 72.1377 225.426C72.5999 225.113 72.9515 224.667 73.1924 224.088C73.4398 223.508 73.5635 222.809 73.5635 221.988V221.969C73.5635 221.148 73.4398 220.449 73.1924 219.869C72.9515 219.29 72.5999 218.847 72.1377 218.541C71.682 218.235 71.1286 218.082 70.4775 218.082C69.833 218.082 69.2796 218.235 68.8174 218.541C68.3617 218.847 68.0101 219.29 67.7627 219.869C67.5218 220.449 67.4014 221.148 67.4014 221.969V221.988C67.4014 222.809 67.5218 223.508 67.7627 224.088C68.0101 224.667 68.3617 225.113 68.8174 225.426C69.2796 225.732 69.8363 225.885 70.4873 225.885ZM81.2393 227.389C80.458 227.389 79.7972 227.239 79.2568 226.939C78.723 226.633 78.3193 226.191 78.0459 225.611C77.779 225.032 77.6455 224.339 77.6455 223.531V216.764H79.3447V223.141C79.3447 224.059 79.5303 224.745 79.9014 225.201C80.2725 225.657 80.8714 225.885 81.6982 225.885C82.1475 225.885 82.5446 225.816 82.8896 225.68C83.2347 225.543 83.5277 225.348 83.7686 225.094C84.0094 224.84 84.1885 224.531 84.3057 224.166C84.4294 223.801 84.4912 223.391 84.4912 222.936V216.764H86.1904V227.203H84.4912V225.66H84.3643C84.195 226.018 83.9639 226.327 83.6709 226.588C83.3779 226.848 83.0264 227.047 82.6162 227.184C82.2126 227.32 81.7536 227.389 81.2393 227.389ZM93.4561 230.895C92.6162 230.895 91.8805 230.774 91.249 230.533C90.624 230.299 90.1227 229.967 89.7451 229.537C89.3675 229.114 89.1299 228.622 89.0322 228.062L89.0518 228.033H90.79L90.8096 228.062C90.9202 228.453 91.2035 228.772 91.6592 229.02C92.1149 229.267 92.7139 229.391 93.4561 229.391C94.387 229.391 95.113 229.173 95.6338 228.736C96.1546 228.3 96.415 227.695 96.415 226.92V224.986H96.2881C96.0732 225.37 95.7998 225.699 95.4678 225.973C95.1423 226.246 94.7712 226.454 94.3545 226.598C93.9378 226.741 93.4886 226.812 93.0068 226.812C92.1084 226.812 91.3304 226.598 90.6729 226.168C90.0153 225.732 89.5075 225.13 89.1494 224.361C88.7913 223.593 88.6123 222.708 88.6123 221.705V221.695C88.6123 220.693 88.7946 219.807 89.1592 219.039C89.5238 218.271 90.0348 217.669 90.6924 217.232C91.3564 216.796 92.141 216.578 93.0459 216.578C93.5342 216.578 93.9834 216.656 94.3936 216.812C94.8102 216.969 95.1781 217.19 95.4971 217.477C95.8226 217.763 96.0895 218.105 96.2979 218.502H96.4053V216.764H98.1045V227.027C98.1045 227.809 97.9157 228.489 97.5381 229.068C97.1605 229.648 96.6234 230.097 95.9268 230.416C95.2301 230.735 94.4066 230.895 93.4561 230.895ZM93.3779 225.309C94.0094 225.309 94.5531 225.156 95.0088 224.85C95.471 224.544 95.8258 224.12 96.0732 223.58C96.3206 223.04 96.4443 222.415 96.4443 221.705V221.695C96.4443 220.986 96.3206 220.361 96.0732 219.82C95.8258 219.273 95.471 218.847 95.0088 218.541C94.5531 218.235 94.0094 218.082 93.3779 218.082C92.7334 218.082 92.1865 218.235 91.7373 218.541C91.2881 218.847 90.943 219.27 90.7021 219.811C90.4678 220.351 90.3506 220.979 90.3506 221.695V221.705C90.3506 222.421 90.4678 223.049 90.7021 223.59C90.943 224.13 91.2881 224.553 91.7373 224.859C92.1865 225.159 92.7334 225.309 93.3779 225.309ZM101.142 227.203V212.643H102.841V218.355H102.968C103.241 217.789 103.632 217.353 104.14 217.047C104.647 216.734 105.289 216.578 106.063 216.578C106.832 216.578 107.489 216.734 108.036 217.047C108.583 217.359 109.003 217.812 109.296 218.404C109.589 218.99 109.735 219.697 109.735 220.523V227.203H108.036V220.914C108.036 219.97 107.828 219.264 107.411 218.795C107.001 218.32 106.382 218.082 105.556 218.082C105.009 218.082 104.53 218.202 104.12 218.443C103.716 218.684 103.401 219.026 103.173 219.469C102.951 219.911 102.841 220.436 102.841 221.041V227.203H101.142ZM116.229 227.311C115.181 227.311 114.416 227.092 113.935 226.656C113.459 226.214 113.222 225.497 113.222 224.508V218.17H111.601V216.764H113.222V214.039H114.979V216.764H117.196V218.17H114.979V224.176C114.979 224.775 115.097 225.201 115.331 225.455C115.565 225.702 115.946 225.826 116.474 225.826C116.61 225.826 116.731 225.823 116.835 225.816C116.939 225.81 117.06 225.8 117.196 225.787V227.223C117.047 227.242 116.89 227.262 116.728 227.281C116.565 227.301 116.399 227.311 116.229 227.311ZM120.233 227.203V218.17H118.563V216.764H120.233V215.572C120.233 214.882 120.344 214.312 120.565 213.863C120.793 213.408 121.129 213.072 121.571 212.857C122.014 212.636 122.564 212.525 123.222 212.525C123.424 212.525 123.619 212.532 123.808 212.545C123.996 212.558 124.172 212.581 124.335 212.613V213.971C124.231 213.958 124.11 213.948 123.974 213.941C123.837 213.935 123.697 213.932 123.554 213.932C122.981 213.932 122.564 214.072 122.304 214.352C122.05 214.632 121.923 215.051 121.923 215.611V216.764H124.247V218.17H121.933V227.203H120.233ZM130.048 227.389C129.267 227.389 128.606 227.239 128.065 226.939C127.532 226.633 127.128 226.191 126.854 225.611C126.588 225.032 126.454 224.339 126.454 223.531V216.764H128.153V223.141C128.153 224.059 128.339 224.745 128.71 225.201C129.081 225.657 129.68 225.885 130.507 225.885C130.956 225.885 131.353 225.816 131.698 225.68C132.043 225.543 132.336 225.348 132.577 225.094C132.818 224.84 132.997 224.531 133.114 224.166C133.238 223.801 133.3 223.391 133.3 222.936V216.764H134.999V227.203H133.3V225.66H133.173C133.004 226.018 132.772 226.327 132.479 226.588C132.187 226.848 131.835 227.047 131.425 227.184C131.021 227.32 130.562 227.389 130.048 227.389ZM138.036 227.203V212.643H139.735V227.203H138.036ZM142.86 227.203V212.643H144.56V227.203H142.86ZM148.505 230.826C148.381 230.826 148.248 230.82 148.104 230.807C147.961 230.8 147.834 230.787 147.724 230.768V229.371C147.815 229.391 147.919 229.404 148.036 229.41C148.153 229.417 148.271 229.42 148.388 229.42C148.882 229.42 149.286 229.303 149.599 229.068C149.911 228.84 150.162 228.427 150.351 227.828L150.556 227.213L146.688 216.764H148.505L151.669 226.285L151.073 225.377H151.806L151.2 226.285L154.364 216.764H156.151L152.079 227.848C151.799 228.603 151.503 229.195 151.19 229.625C150.878 230.061 150.507 230.37 150.077 230.553C149.654 230.735 149.13 230.826 148.505 230.826ZM167.753 227.389C166.776 227.389 165.927 227.167 165.204 226.725C164.488 226.275 163.931 225.647 163.534 224.84C163.144 224.026 162.948 223.066 162.948 221.959V221.939C162.948 220.852 163.144 219.908 163.534 219.107C163.931 218.307 164.488 217.685 165.204 217.242C165.92 216.799 166.767 216.578 167.743 216.578C168.596 216.578 169.328 216.731 169.94 217.037C170.559 217.343 171.05 217.75 171.415 218.258C171.78 218.766 172.011 219.326 172.108 219.938L172.118 220.006H170.438L170.419 219.967C170.295 219.446 170.006 219.003 169.55 218.639C169.101 218.268 168.498 218.082 167.743 218.082C167.118 218.082 166.578 218.242 166.122 218.561C165.666 218.873 165.312 219.319 165.058 219.898C164.81 220.478 164.687 221.161 164.687 221.949V221.959C164.687 222.766 164.813 223.463 165.067 224.049C165.321 224.635 165.676 225.087 166.132 225.406C166.594 225.725 167.131 225.885 167.743 225.885C168.453 225.885 169.029 225.729 169.472 225.416C169.921 225.097 170.237 224.645 170.419 224.059L170.438 224L172.118 223.99L172.099 224.088C171.968 224.726 171.718 225.296 171.347 225.797C170.976 226.292 170.491 226.682 169.892 226.969C169.293 227.249 168.58 227.389 167.753 227.389ZM174.384 227.203V216.764H176.083V218.365H176.22C176.409 217.805 176.737 217.369 177.206 217.057C177.675 216.738 178.248 216.578 178.925 216.578C179.081 216.578 179.234 216.588 179.384 216.607C179.534 216.62 179.651 216.633 179.735 216.646V218.297C179.586 218.264 179.426 218.242 179.257 218.229C179.094 218.209 178.915 218.199 178.72 218.199C178.205 218.199 177.75 218.303 177.353 218.512C176.955 218.72 176.643 219.016 176.415 219.4C176.194 219.778 176.083 220.224 176.083 220.738V227.203H174.384ZM184.54 227.389C183.876 227.389 183.28 227.262 182.753 227.008C182.232 226.754 181.819 226.396 181.513 225.934C181.213 225.465 181.063 224.915 181.063 224.283V224.264C181.063 223.645 181.21 223.118 181.503 222.682C181.802 222.239 182.235 221.891 182.802 221.637C183.368 221.383 184.055 221.233 184.862 221.188L188.7 220.963V222.311L185.067 222.535C184.293 222.581 183.72 222.747 183.349 223.033C182.984 223.32 182.802 223.72 182.802 224.234V224.254C182.802 224.775 182.997 225.182 183.388 225.475C183.785 225.768 184.289 225.914 184.901 225.914C185.468 225.914 185.972 225.8 186.415 225.572C186.864 225.344 187.216 225.032 187.47 224.635C187.724 224.238 187.851 223.792 187.851 223.297V220.084C187.851 219.439 187.655 218.945 187.265 218.6C186.874 218.255 186.295 218.082 185.526 218.082C184.888 218.082 184.368 218.202 183.964 218.443C183.56 218.678 183.293 219.007 183.163 219.43L183.153 219.469H181.474L181.483 219.4C181.562 218.847 181.78 218.359 182.138 217.936C182.496 217.512 182.968 217.18 183.554 216.939C184.14 216.699 184.813 216.578 185.575 216.578C186.415 216.578 187.131 216.718 187.724 216.998C188.323 217.271 188.775 217.669 189.081 218.189C189.394 218.704 189.55 219.319 189.55 220.035V227.203H187.851V225.631H187.724C187.509 226.002 187.242 226.321 186.923 226.588C186.604 226.848 186.246 227.047 185.849 227.184C185.451 227.32 185.015 227.389 184.54 227.389ZM193.104 227.203V218.17H191.435V216.764H193.104V215.572C193.104 214.882 193.215 214.312 193.437 213.863C193.664 213.408 194 213.072 194.442 212.857C194.885 212.636 195.435 212.525 196.093 212.525C196.295 212.525 196.49 212.532 196.679 212.545C196.868 212.558 197.043 212.581 197.206 212.613V213.971C197.102 213.958 196.981 213.948 196.845 213.941C196.708 213.935 196.568 213.932 196.425 213.932C195.852 213.932 195.435 214.072 195.175 214.352C194.921 214.632 194.794 215.051 194.794 215.611V216.764H197.118V218.17H194.804V227.203H193.104ZM203.046 227.311C201.998 227.311 201.233 227.092 200.751 226.656C200.276 226.214 200.038 225.497 200.038 224.508V218.17H198.417V216.764H200.038V214.039H201.796V216.764H204.013V218.17H201.796V224.176C201.796 224.775 201.913 225.201 202.147 225.455C202.382 225.702 202.763 225.826 203.29 225.826C203.427 225.826 203.547 225.823 203.651 225.816C203.756 225.81 203.876 225.8 204.013 225.787V227.223C203.863 227.242 203.707 227.262 203.544 227.281C203.381 227.301 203.215 227.311 203.046 227.311ZM215.927 227.389C214.931 227.389 214.075 227.171 213.358 226.734C212.642 226.292 212.092 225.67 211.708 224.869C211.324 224.062 211.132 223.111 211.132 222.018V222.008C211.132 220.934 211.324 219.99 211.708 219.176C212.092 218.362 212.636 217.727 213.339 217.271C214.049 216.809 214.875 216.578 215.819 216.578C216.763 216.578 217.577 216.799 218.261 217.242C218.944 217.678 219.468 218.29 219.833 219.078C220.198 219.859 220.38 220.771 220.38 221.812V222.467H212.001V221.109H219.521L218.681 222.35V221.686C218.681 220.865 218.557 220.191 218.31 219.664C218.062 219.137 217.724 218.743 217.294 218.482C216.864 218.222 216.369 218.092 215.81 218.092C215.25 218.092 214.748 218.229 214.306 218.502C213.863 218.775 213.511 219.179 213.251 219.713C212.997 220.247 212.87 220.904 212.87 221.686V222.35C212.87 223.092 212.994 223.727 213.241 224.254C213.495 224.775 213.853 225.175 214.315 225.455C214.784 225.735 215.334 225.875 215.966 225.875C216.428 225.875 216.832 225.81 217.177 225.68C217.528 225.549 217.818 225.383 218.046 225.182C218.274 224.973 218.433 224.755 218.524 224.527L218.563 224.439H220.253L220.233 224.518C220.149 224.889 219.989 225.247 219.755 225.592C219.521 225.93 219.221 226.236 218.856 226.51C218.492 226.783 218.062 226.998 217.567 227.154C217.073 227.311 216.526 227.389 215.927 227.389ZM225.526 227.203L221.659 216.764H223.456L226.317 225.357H226.444L229.315 216.764H231.103L227.245 227.203H225.526ZM237.021 227.389C236.024 227.389 235.168 227.171 234.452 226.734C233.736 226.292 233.186 225.67 232.802 224.869C232.418 224.062 232.226 223.111 232.226 222.018V222.008C232.226 220.934 232.418 219.99 232.802 219.176C233.186 218.362 233.729 217.727 234.433 217.271C235.142 216.809 235.969 216.578 236.913 216.578C237.857 216.578 238.671 216.799 239.354 217.242C240.038 217.678 240.562 218.29 240.927 219.078C241.291 219.859 241.474 220.771 241.474 221.812V222.467H233.095V221.109H240.614L239.774 222.35V221.686C239.774 220.865 239.651 220.191 239.403 219.664C239.156 219.137 238.817 218.743 238.388 218.482C237.958 218.222 237.463 218.092 236.903 218.092C236.343 218.092 235.842 218.229 235.399 218.502C234.957 218.775 234.605 219.179 234.345 219.713C234.091 220.247 233.964 220.904 233.964 221.686V222.35C233.964 223.092 234.088 223.727 234.335 224.254C234.589 224.775 234.947 225.175 235.409 225.455C235.878 225.735 236.428 225.875 237.06 225.875C237.522 225.875 237.925 225.81 238.271 225.68C238.622 225.549 238.912 225.383 239.14 225.182C239.368 224.973 239.527 224.755 239.618 224.527L239.657 224.439H241.347L241.327 224.518C241.243 224.889 241.083 225.247 240.849 225.592C240.614 225.93 240.315 226.236 239.95 226.51C239.586 226.783 239.156 226.998 238.661 227.154C238.166 227.311 237.619 227.389 237.021 227.389ZM243.896 227.203V216.764H245.595V218.365H245.731C245.92 217.805 246.249 217.369 246.718 217.057C247.187 216.738 247.759 216.578 248.437 216.578C248.593 216.578 248.746 216.588 248.896 216.607C249.045 216.62 249.162 216.633 249.247 216.646V218.297C249.097 218.264 248.938 218.242 248.769 218.229C248.606 218.209 248.427 218.199 248.231 218.199C247.717 218.199 247.261 218.303 246.864 218.512C246.467 218.72 246.155 219.016 245.927 219.4C245.705 219.778 245.595 220.224 245.595 220.738V227.203H243.896ZM252.235 230.826C252.112 230.826 251.978 230.82 251.835 230.807C251.692 230.8 251.565 230.787 251.454 230.768V229.371C251.545 229.391 251.649 229.404 251.767 229.41C251.884 229.417 252.001 229.42 252.118 229.42C252.613 229.42 253.017 229.303 253.329 229.068C253.642 228.84 253.892 228.427 254.081 227.828L254.286 227.213L250.419 216.764H252.235L255.399 226.285L254.804 225.377H255.536L254.931 226.285L258.095 216.764H259.882L255.81 227.848C255.53 228.603 255.233 229.195 254.921 229.625C254.608 230.061 254.237 230.37 253.808 230.553C253.384 230.735 252.86 230.826 252.235 230.826ZM270.81 227.389C270.028 227.389 269.338 227.268 268.739 227.027C268.147 226.786 267.672 226.448 267.313 226.012C266.962 225.576 266.754 225.064 266.688 224.479V224.459H268.417V224.479C268.554 224.934 268.824 225.299 269.228 225.572C269.638 225.839 270.181 225.973 270.858 225.973C271.334 225.973 271.747 225.908 272.099 225.777C272.45 225.641 272.727 225.452 272.929 225.211C273.131 224.97 273.231 224.693 273.231 224.381V224.361C273.231 224.003 273.095 223.704 272.821 223.463C272.548 223.215 272.095 223.014 271.464 222.857L269.833 222.467C269.182 222.311 268.645 222.109 268.222 221.861C267.799 221.607 267.486 221.298 267.284 220.934C267.082 220.562 266.981 220.13 266.981 219.635V219.625C266.981 219.039 267.147 218.518 267.479 218.062C267.818 217.6 268.28 217.239 268.866 216.979C269.452 216.712 270.113 216.578 270.849 216.578C271.591 216.578 272.242 216.699 272.802 216.939C273.368 217.174 273.821 217.506 274.159 217.936C274.504 218.365 274.709 218.867 274.774 219.439L274.784 219.469H273.124V219.449C273.02 219.02 272.772 218.671 272.382 218.404C271.991 218.131 271.48 217.994 270.849 217.994C270.432 217.994 270.064 218.059 269.745 218.189C269.426 218.32 269.175 218.502 268.993 218.736C268.811 218.964 268.72 219.234 268.72 219.547V219.566C268.72 219.794 268.778 220.003 268.896 220.191C269.019 220.374 269.208 220.533 269.462 220.67C269.716 220.807 270.041 220.924 270.438 221.021L272.06 221.412C273.062 221.653 273.798 221.998 274.267 222.447C274.735 222.89 274.97 223.486 274.97 224.234V224.254C274.97 224.872 274.787 225.419 274.423 225.895C274.058 226.363 273.563 226.731 272.938 226.998C272.313 227.258 271.604 227.389 270.81 227.389ZM280.956 227.311C279.908 227.311 279.143 227.092 278.661 226.656C278.186 226.214 277.948 225.497 277.948 224.508V218.17H276.327V216.764H277.948V214.039H279.706V216.764H281.923V218.17H279.706V224.176C279.706 224.775 279.823 225.201 280.058 225.455C280.292 225.702 280.673 225.826 281.2 225.826C281.337 225.826 281.457 225.823 281.562 225.816C281.666 225.81 281.786 225.8 281.923 225.787V227.223C281.773 227.242 281.617 227.262 281.454 227.281C281.291 227.301 281.125 227.311 280.956 227.311ZM288.388 227.389C287.392 227.389 286.535 227.171 285.819 226.734C285.103 226.292 284.553 225.67 284.169 224.869C283.785 224.062 283.593 223.111 283.593 222.018V222.008C283.593 220.934 283.785 219.99 284.169 219.176C284.553 218.362 285.097 217.727 285.8 217.271C286.509 216.809 287.336 216.578 288.28 216.578C289.224 216.578 290.038 216.799 290.722 217.242C291.405 217.678 291.929 218.29 292.294 219.078C292.659 219.859 292.841 220.771 292.841 221.812V222.467H284.462V221.109H291.981L291.142 222.35V221.686C291.142 220.865 291.018 220.191 290.771 219.664C290.523 219.137 290.185 218.743 289.755 218.482C289.325 218.222 288.83 218.092 288.271 218.092C287.711 218.092 287.209 218.229 286.767 218.502C286.324 218.775 285.972 219.179 285.712 219.713C285.458 220.247 285.331 220.904 285.331 221.686V222.35C285.331 223.092 285.455 223.727 285.702 224.254C285.956 224.775 286.314 225.175 286.776 225.455C287.245 225.735 287.795 225.875 288.427 225.875C288.889 225.875 289.293 225.81 289.638 225.68C289.989 225.549 290.279 225.383 290.507 225.182C290.735 224.973 290.894 224.755 290.985 224.527L291.024 224.439H292.714L292.694 224.518C292.61 224.889 292.45 225.247 292.216 225.592C291.981 225.93 291.682 226.236 291.317 226.51C290.953 226.783 290.523 226.998 290.028 227.154C289.534 227.311 288.987 227.389 288.388 227.389ZM295.263 230.699V216.764H296.962V218.453H297.099C297.313 218.062 297.58 217.727 297.899 217.447C298.225 217.167 298.593 216.952 299.003 216.803C299.42 216.653 299.872 216.578 300.36 216.578C301.246 216.578 302.017 216.803 302.675 217.252C303.332 217.695 303.843 218.323 304.208 219.137C304.573 219.944 304.755 220.891 304.755 221.979V221.988C304.755 223.082 304.573 224.033 304.208 224.84C303.843 225.647 303.332 226.275 302.675 226.725C302.017 227.167 301.249 227.389 300.37 227.389C299.888 227.389 299.436 227.314 299.013 227.164C298.59 227.008 298.212 226.793 297.88 226.52C297.554 226.246 297.294 225.917 297.099 225.533H296.962V230.699H295.263ZM299.989 225.885C300.621 225.885 301.161 225.729 301.61 225.416C302.066 225.104 302.414 224.658 302.655 224.078C302.896 223.492 303.017 222.796 303.017 221.988V221.979C303.017 221.165 302.896 220.468 302.655 219.889C302.414 219.309 302.066 218.863 301.61 218.551C301.161 218.238 300.621 218.082 299.989 218.082C299.364 218.082 298.821 218.242 298.358 218.561C297.903 218.873 297.551 219.322 297.304 219.908C297.056 220.488 296.933 221.178 296.933 221.979V221.988C296.933 222.789 297.056 223.482 297.304 224.068C297.558 224.648 297.912 225.097 298.368 225.416C298.824 225.729 299.364 225.885 299.989 225.885ZM308.192 227.311C307.854 227.311 307.564 227.19 307.323 226.949C307.082 226.708 306.962 226.419 306.962 226.08C306.962 225.735 307.082 225.445 307.323 225.211C307.564 224.97 307.854 224.85 308.192 224.85C308.537 224.85 308.827 224.97 309.062 225.211C309.302 225.445 309.423 225.735 309.423 226.08C309.423 226.419 309.302 226.708 309.062 226.949C308.827 227.19 308.537 227.311 308.192 227.311ZM317.704 227.203V213.111H319.462V219.205H327.196V213.111H328.954V227.203H327.196V220.787H319.462V227.203H317.704ZM336.396 227.389C335.399 227.389 334.543 227.171 333.827 226.734C333.111 226.292 332.561 225.67 332.177 224.869C331.793 224.062 331.601 223.111 331.601 222.018V222.008C331.601 220.934 331.793 219.99 332.177 219.176C332.561 218.362 333.104 217.727 333.808 217.271C334.517 216.809 335.344 216.578 336.288 216.578C337.232 216.578 338.046 216.799 338.729 217.242C339.413 217.678 339.937 218.29 340.302 219.078C340.666 219.859 340.849 220.771 340.849 221.812V222.467H332.47V221.109H339.989L339.149 222.35V221.686C339.149 220.865 339.026 220.191 338.778 219.664C338.531 219.137 338.192 218.743 337.763 218.482C337.333 218.222 336.838 218.092 336.278 218.092C335.718 218.092 335.217 218.229 334.774 218.502C334.332 218.775 333.98 219.179 333.72 219.713C333.466 220.247 333.339 220.904 333.339 221.686V222.35C333.339 223.092 333.463 223.727 333.71 224.254C333.964 224.775 334.322 225.175 334.784 225.455C335.253 225.735 335.803 225.875 336.435 225.875C336.897 225.875 337.3 225.81 337.646 225.68C337.997 225.549 338.287 225.383 338.515 225.182C338.743 224.973 338.902 224.755 338.993 224.527L339.032 224.439H340.722L340.702 224.518C340.618 224.889 340.458 225.247 340.224 225.592C339.989 225.93 339.69 226.236 339.325 226.51C338.961 226.783 338.531 226.998 338.036 227.154C337.541 227.311 336.994 227.389 336.396 227.389ZM343.271 227.203V216.764H344.97V218.365H345.106C345.295 217.805 345.624 217.369 346.093 217.057C346.562 216.738 347.134 216.578 347.812 216.578C347.968 216.578 348.121 216.588 348.271 216.607C348.42 216.62 348.537 216.633 348.622 216.646V218.297C348.472 218.264 348.313 218.242 348.144 218.229C347.981 218.209 347.802 218.199 347.606 218.199C347.092 218.199 346.636 218.303 346.239 218.512C345.842 218.72 345.53 219.016 345.302 219.4C345.08 219.778 344.97 220.224 344.97 220.738V227.203H343.271ZM354.501 227.389C353.505 227.389 352.649 227.171 351.933 226.734C351.216 226.292 350.666 225.67 350.282 224.869C349.898 224.062 349.706 223.111 349.706 222.018V222.008C349.706 220.934 349.898 219.99 350.282 219.176C350.666 218.362 351.21 217.727 351.913 217.271C352.623 216.809 353.45 216.578 354.394 216.578C355.338 216.578 356.151 216.799 356.835 217.242C357.519 217.678 358.043 218.29 358.407 219.078C358.772 219.859 358.954 220.771 358.954 221.812V222.467H350.575V221.109H358.095L357.255 222.35V221.686C357.255 220.865 357.131 220.191 356.884 219.664C356.636 219.137 356.298 218.743 355.868 218.482C355.438 218.222 354.944 218.092 354.384 218.092C353.824 218.092 353.323 218.229 352.88 218.502C352.437 218.775 352.086 219.179 351.825 219.713C351.571 220.247 351.444 220.904 351.444 221.686V222.35C351.444 223.092 351.568 223.727 351.815 224.254C352.069 224.775 352.427 225.175 352.89 225.455C353.358 225.735 353.909 225.875 354.54 225.875C355.002 225.875 355.406 225.81 355.751 225.68C356.103 225.549 356.392 225.383 356.62 225.182C356.848 224.973 357.007 224.755 357.099 224.527L357.138 224.439H358.827L358.808 224.518C358.723 224.889 358.563 225.247 358.329 225.592C358.095 225.93 357.795 226.236 357.431 226.51C357.066 226.783 356.636 226.998 356.142 227.154C355.647 227.311 355.1 227.389 354.501 227.389ZM361.132 218.482L361.981 213.111H363.886L362.382 218.482H361.132ZM369.052 227.389C368.271 227.389 367.58 227.268 366.981 227.027C366.389 226.786 365.914 226.448 365.556 226.012C365.204 225.576 364.996 225.064 364.931 224.479V224.459H366.659V224.479C366.796 224.934 367.066 225.299 367.47 225.572C367.88 225.839 368.424 225.973 369.101 225.973C369.576 225.973 369.989 225.908 370.341 225.777C370.692 225.641 370.969 225.452 371.171 225.211C371.373 224.97 371.474 224.693 371.474 224.381V224.361C371.474 224.003 371.337 223.704 371.063 223.463C370.79 223.215 370.338 223.014 369.706 222.857L368.075 222.467C367.424 222.311 366.887 222.109 366.464 221.861C366.041 221.607 365.728 221.298 365.526 220.934C365.325 220.562 365.224 220.13 365.224 219.635V219.625C365.224 219.039 365.39 218.518 365.722 218.062C366.06 217.6 366.522 217.239 367.108 216.979C367.694 216.712 368.355 216.578 369.091 216.578C369.833 216.578 370.484 216.699 371.044 216.939C371.61 217.174 372.063 217.506 372.401 217.936C372.746 218.365 372.951 218.867 373.017 219.439L373.026 219.469H371.366V219.449C371.262 219.02 371.015 218.671 370.624 218.404C370.233 218.131 369.722 217.994 369.091 217.994C368.674 217.994 368.306 218.059 367.987 218.189C367.668 218.32 367.418 218.502 367.235 218.736C367.053 218.964 366.962 219.234 366.962 219.547V219.566C366.962 219.794 367.021 220.003 367.138 220.191C367.261 220.374 367.45 220.533 367.704 220.67C367.958 220.807 368.284 220.924 368.681 221.021L370.302 221.412C371.304 221.653 372.04 221.998 372.509 222.447C372.978 222.89 373.212 223.486 373.212 224.234V224.254C373.212 224.872 373.03 225.419 372.665 225.895C372.3 226.363 371.806 226.731 371.181 226.998C370.556 227.258 369.846 227.389 369.052 227.389ZM50.5752 251.389C49.9111 251.389 49.3154 251.262 48.7881 251.008C48.2673 250.754 47.8538 250.396 47.5479 249.934C47.2484 249.465 47.0986 248.915 47.0986 248.283V248.264C47.0986 247.645 47.2451 247.118 47.5381 246.682C47.8376 246.239 48.2705 245.891 48.8369 245.637C49.4033 245.383 50.0902 245.233 50.8975 245.188L54.7354 244.963V246.311L51.1025 246.535C50.3278 246.581 49.7549 246.747 49.3838 247.033C49.0192 247.32 48.8369 247.72 48.8369 248.234V248.254C48.8369 248.775 49.0322 249.182 49.4229 249.475C49.82 249.768 50.3245 249.914 50.9365 249.914C51.5029 249.914 52.0075 249.8 52.4502 249.572C52.8994 249.344 53.251 249.032 53.5049 248.635C53.7588 248.238 53.8857 247.792 53.8857 247.297V244.084C53.8857 243.439 53.6904 242.945 53.2998 242.6C52.9092 242.255 52.3298 242.082 51.5615 242.082C50.9235 242.082 50.4027 242.202 49.999 242.443C49.5954 242.678 49.3285 243.007 49.1982 243.43L49.1885 243.469H47.5088L47.5186 243.4C47.5967 242.847 47.8148 242.359 48.1729 241.936C48.5309 241.512 49.0029 241.18 49.5889 240.939C50.1748 240.699 50.8486 240.578 51.6104 240.578C52.4502 240.578 53.1663 240.718 53.7588 240.998C54.3577 241.271 54.8102 241.669 55.1162 242.189C55.4287 242.704 55.585 243.319 55.585 244.035V251.203H53.8857V249.631H53.7588C53.5439 250.002 53.277 250.321 52.958 250.588C52.639 250.848 52.2809 251.047 51.8838 251.184C51.4867 251.32 51.0505 251.389 50.5752 251.389ZM63.8369 251.203V236.643H65.5361V251.203H63.8369ZM72.8701 251.389C71.887 251.389 71.0342 251.171 70.3115 250.734C69.5889 250.298 69.029 249.676 68.6318 248.869C68.2412 248.062 68.0459 247.102 68.0459 245.988V245.969C68.0459 244.855 68.2412 243.895 68.6318 243.088C69.029 242.281 69.5889 241.662 70.3115 241.232C71.0342 240.796 71.8838 240.578 72.8604 240.578C73.8499 240.578 74.7028 240.796 75.4189 241.232C76.1416 241.662 76.6982 242.281 77.0889 243.088C77.486 243.895 77.6846 244.855 77.6846 245.969V245.988C77.6846 247.102 77.486 248.062 77.0889 248.869C76.6982 249.676 76.1416 250.298 75.4189 250.734C74.7028 251.171 73.8532 251.389 72.8701 251.389ZM72.8701 249.885C73.5146 249.885 74.0648 249.732 74.5205 249.426C74.9827 249.113 75.3343 248.667 75.5752 248.088C75.8226 247.508 75.9463 246.809 75.9463 245.988V245.969C75.9463 245.148 75.8226 244.449 75.5752 243.869C75.3343 243.29 74.9827 242.847 74.5205 242.541C74.0648 242.235 73.5114 242.082 72.8604 242.082C72.2158 242.082 71.6624 242.235 71.2002 242.541C70.7445 242.847 70.3929 243.29 70.1455 243.869C69.9046 244.449 69.7842 245.148 69.7842 245.969V245.988C69.7842 246.809 69.9046 247.508 70.1455 248.088C70.3929 248.667 70.7445 249.113 71.2002 249.426C71.6624 249.732 72.2191 249.885 72.8701 249.885ZM84.4131 251.389C83.43 251.389 82.5771 251.171 81.8545 250.734C81.1318 250.298 80.5719 249.676 80.1748 248.869C79.7842 248.062 79.5889 247.102 79.5889 245.988V245.969C79.5889 244.855 79.7842 243.895 80.1748 243.088C80.5719 242.281 81.1318 241.662 81.8545 241.232C82.5771 240.796 83.4268 240.578 84.4033 240.578C85.3929 240.578 86.2458 240.796 86.9619 241.232C87.6846 241.662 88.2412 242.281 88.6318 243.088C89.029 243.895 89.2275 244.855 89.2275 245.969V245.988C89.2275 247.102 89.029 248.062 88.6318 248.869C88.2412 249.676 87.6846 250.298 86.9619 250.734C86.2458 251.171 85.3962 251.389 84.4131 251.389ZM84.4131 249.885C85.0576 249.885 85.6077 249.732 86.0635 249.426C86.5257 249.113 86.8773 248.667 87.1182 248.088C87.3656 247.508 87.4893 246.809 87.4893 245.988V245.969C87.4893 245.148 87.3656 244.449 87.1182 243.869C86.8773 243.29 86.5257 242.847 86.0635 242.541C85.6077 242.235 85.0544 242.082 84.4033 242.082C83.7588 242.082 83.2054 242.235 82.7432 242.541C82.2874 242.847 81.9359 243.29 81.6885 243.869C81.4476 244.449 81.3271 245.148 81.3271 245.969V245.988C81.3271 246.809 81.4476 247.508 81.6885 248.088C81.9359 248.667 82.2874 249.113 82.7432 249.426C83.2054 249.732 83.762 249.885 84.4131 249.885ZM91.7568 251.203V236.643H93.4561V251.203H91.7568ZM98.3389 251.203L94.2861 246.115L95.5068 245.021L100.438 251.203H98.3389ZM93.2021 247.492L93.1436 245.334H93.5928L98.1143 240.764H100.175L95.2236 245.578L94.8721 245.891L93.2021 247.492ZM110.419 251.389C109.755 251.389 109.159 251.262 108.632 251.008C108.111 250.754 107.698 250.396 107.392 249.934C107.092 249.465 106.942 248.915 106.942 248.283V248.264C106.942 247.645 107.089 247.118 107.382 246.682C107.681 246.239 108.114 245.891 108.681 245.637C109.247 245.383 109.934 245.233 110.741 245.188L114.579 244.963V246.311L110.946 246.535C110.172 246.581 109.599 246.747 109.228 247.033C108.863 247.32 108.681 247.72 108.681 248.234V248.254C108.681 248.775 108.876 249.182 109.267 249.475C109.664 249.768 110.168 249.914 110.78 249.914C111.347 249.914 111.851 249.8 112.294 249.572C112.743 249.344 113.095 249.032 113.349 248.635C113.603 248.238 113.729 247.792 113.729 247.297V244.084C113.729 243.439 113.534 242.945 113.144 242.6C112.753 242.255 112.174 242.082 111.405 242.082C110.767 242.082 110.246 242.202 109.843 242.443C109.439 242.678 109.172 243.007 109.042 243.43L109.032 243.469H107.353L107.362 243.4C107.44 242.847 107.659 242.359 108.017 241.936C108.375 241.512 108.847 241.18 109.433 240.939C110.019 240.699 110.692 240.578 111.454 240.578C112.294 240.578 113.01 240.718 113.603 240.998C114.201 241.271 114.654 241.669 114.96 242.189C115.272 242.704 115.429 243.319 115.429 244.035V251.203H113.729V249.631H113.603C113.388 250.002 113.121 250.321 112.802 250.588C112.483 250.848 112.125 251.047 111.728 251.184C111.33 251.32 110.894 251.389 110.419 251.389ZM121.952 251.311C120.904 251.311 120.139 251.092 119.657 250.656C119.182 250.214 118.944 249.497 118.944 248.508V242.17H117.323V240.764H118.944V238.039H120.702V240.764H122.919V242.17H120.702V248.176C120.702 248.775 120.819 249.201 121.054 249.455C121.288 249.702 121.669 249.826 122.196 249.826C122.333 249.826 122.453 249.823 122.558 249.816C122.662 249.81 122.782 249.8 122.919 249.787V251.223C122.769 251.242 122.613 251.262 122.45 251.281C122.287 251.301 122.121 251.311 121.952 251.311ZM134.862 251.389C133.879 251.389 133.026 251.171 132.304 250.734C131.581 250.298 131.021 249.676 130.624 248.869C130.233 248.062 130.038 247.102 130.038 245.988V245.969C130.038 244.855 130.233 243.895 130.624 243.088C131.021 242.281 131.581 241.662 132.304 241.232C133.026 240.796 133.876 240.578 134.853 240.578C135.842 240.578 136.695 240.796 137.411 241.232C138.134 241.662 138.69 242.281 139.081 243.088C139.478 243.895 139.677 244.855 139.677 245.969V245.988C139.677 247.102 139.478 248.062 139.081 248.869C138.69 249.676 138.134 250.298 137.411 250.734C136.695 251.171 135.845 251.389 134.862 251.389ZM134.862 249.885C135.507 249.885 136.057 249.732 136.513 249.426C136.975 249.113 137.326 248.667 137.567 248.088C137.815 247.508 137.938 246.809 137.938 245.988V245.969C137.938 245.148 137.815 244.449 137.567 243.869C137.326 243.29 136.975 242.847 136.513 242.541C136.057 242.235 135.504 242.082 134.853 242.082C134.208 242.082 133.655 242.235 133.192 242.541C132.737 242.847 132.385 243.29 132.138 243.869C131.897 244.449 131.776 245.148 131.776 245.969V245.988C131.776 246.809 131.897 247.508 132.138 248.088C132.385 248.667 132.737 249.113 133.192 249.426C133.655 249.732 134.211 249.885 134.862 249.885ZM145.614 251.389C144.833 251.389 144.172 251.239 143.632 250.939C143.098 250.633 142.694 250.191 142.421 249.611C142.154 249.032 142.021 248.339 142.021 247.531V240.764H143.72V247.141C143.72 248.059 143.905 248.745 144.276 249.201C144.647 249.657 145.246 249.885 146.073 249.885C146.522 249.885 146.92 249.816 147.265 249.68C147.61 249.543 147.903 249.348 148.144 249.094C148.384 248.84 148.563 248.531 148.681 248.166C148.804 247.801 148.866 247.391 148.866 246.936V240.764H150.565V251.203H148.866V249.66H148.739C148.57 250.018 148.339 250.327 148.046 250.588C147.753 250.848 147.401 251.047 146.991 251.184C146.588 251.32 146.129 251.389 145.614 251.389ZM153.505 251.203V240.764H155.204V242.365H155.341C155.53 241.805 155.858 241.369 156.327 241.057C156.796 240.738 157.369 240.578 158.046 240.578C158.202 240.578 158.355 240.588 158.505 240.607C158.655 240.62 158.772 240.633 158.856 240.646V242.297C158.707 242.264 158.547 242.242 158.378 242.229C158.215 242.209 158.036 242.199 157.841 242.199C157.326 242.199 156.871 242.303 156.474 242.512C156.076 242.72 155.764 243.016 155.536 243.4C155.315 243.778 155.204 244.224 155.204 244.738V251.203H153.505ZM166.063 254.699V240.764H167.763V242.453H167.899C168.114 242.062 168.381 241.727 168.7 241.447C169.026 241.167 169.394 240.952 169.804 240.803C170.22 240.653 170.673 240.578 171.161 240.578C172.047 240.578 172.818 240.803 173.476 241.252C174.133 241.695 174.644 242.323 175.009 243.137C175.373 243.944 175.556 244.891 175.556 245.979V245.988C175.556 247.082 175.373 248.033 175.009 248.84C174.644 249.647 174.133 250.275 173.476 250.725C172.818 251.167 172.05 251.389 171.171 251.389C170.689 251.389 170.237 251.314 169.813 251.164C169.39 251.008 169.013 250.793 168.681 250.52C168.355 250.246 168.095 249.917 167.899 249.533H167.763V254.699H166.063ZM170.79 249.885C171.422 249.885 171.962 249.729 172.411 249.416C172.867 249.104 173.215 248.658 173.456 248.078C173.697 247.492 173.817 246.796 173.817 245.988V245.979C173.817 245.165 173.697 244.468 173.456 243.889C173.215 243.309 172.867 242.863 172.411 242.551C171.962 242.238 171.422 242.082 170.79 242.082C170.165 242.082 169.621 242.242 169.159 242.561C168.703 242.873 168.352 243.322 168.104 243.908C167.857 244.488 167.733 245.178 167.733 245.979V245.988C167.733 246.789 167.857 247.482 168.104 248.068C168.358 248.648 168.713 249.097 169.169 249.416C169.625 249.729 170.165 249.885 170.79 249.885ZM177.978 251.203V240.764H179.677V242.365H179.813C180.002 241.805 180.331 241.369 180.8 241.057C181.269 240.738 181.841 240.578 182.519 240.578C182.675 240.578 182.828 240.588 182.978 240.607C183.127 240.62 183.244 240.633 183.329 240.646V242.297C183.179 242.264 183.02 242.242 182.851 242.229C182.688 242.209 182.509 242.199 182.313 242.199C181.799 242.199 181.343 242.303 180.946 242.512C180.549 242.72 180.237 243.016 180.009 243.4C179.787 243.778 179.677 244.224 179.677 244.738V251.203H177.978ZM189.237 251.389C188.254 251.389 187.401 251.171 186.679 250.734C185.956 250.298 185.396 249.676 184.999 248.869C184.608 248.062 184.413 247.102 184.413 245.988V245.969C184.413 244.855 184.608 243.895 184.999 243.088C185.396 242.281 185.956 241.662 186.679 241.232C187.401 240.796 188.251 240.578 189.228 240.578C190.217 240.578 191.07 240.796 191.786 241.232C192.509 241.662 193.065 242.281 193.456 243.088C193.853 243.895 194.052 244.855 194.052 245.969V245.988C194.052 247.102 193.853 248.062 193.456 248.869C193.065 249.676 192.509 250.298 191.786 250.734C191.07 251.171 190.22 251.389 189.237 251.389ZM189.237 249.885C189.882 249.885 190.432 249.732 190.888 249.426C191.35 249.113 191.701 248.667 191.942 248.088C192.19 247.508 192.313 246.809 192.313 245.988V245.969C192.313 245.148 192.19 244.449 191.942 243.869C191.701 243.29 191.35 242.847 190.888 242.541C190.432 242.235 189.879 242.082 189.228 242.082C188.583 242.082 188.03 242.235 187.567 242.541C187.112 242.847 186.76 243.29 186.513 243.869C186.272 244.449 186.151 245.148 186.151 245.969V245.988C186.151 246.809 186.272 247.508 186.513 248.088C186.76 248.667 187.112 249.113 187.567 249.426C188.03 249.732 188.586 249.885 189.237 249.885ZM200.761 251.389C199.784 251.389 198.935 251.167 198.212 250.725C197.496 250.275 196.939 249.647 196.542 248.84C196.151 248.026 195.956 247.066 195.956 245.959V245.939C195.956 244.852 196.151 243.908 196.542 243.107C196.939 242.307 197.496 241.685 198.212 241.242C198.928 240.799 199.774 240.578 200.751 240.578C201.604 240.578 202.336 240.731 202.948 241.037C203.567 241.343 204.058 241.75 204.423 242.258C204.787 242.766 205.019 243.326 205.116 243.938L205.126 244.006H203.446L203.427 243.967C203.303 243.446 203.013 243.003 202.558 242.639C202.108 242.268 201.506 242.082 200.751 242.082C200.126 242.082 199.586 242.242 199.13 242.561C198.674 242.873 198.319 243.319 198.065 243.898C197.818 244.478 197.694 245.161 197.694 245.949V245.959C197.694 246.766 197.821 247.463 198.075 248.049C198.329 248.635 198.684 249.087 199.14 249.406C199.602 249.725 200.139 249.885 200.751 249.885C201.461 249.885 202.037 249.729 202.479 249.416C202.929 249.097 203.244 248.645 203.427 248.059L203.446 248L205.126 247.99L205.106 248.088C204.976 248.726 204.726 249.296 204.354 249.797C203.983 250.292 203.498 250.682 202.899 250.969C202.3 251.249 201.588 251.389 200.761 251.389ZM211.669 251.389C210.673 251.389 209.817 251.171 209.101 250.734C208.384 250.292 207.834 249.67 207.45 248.869C207.066 248.062 206.874 247.111 206.874 246.018V246.008C206.874 244.934 207.066 243.99 207.45 243.176C207.834 242.362 208.378 241.727 209.081 241.271C209.791 240.809 210.618 240.578 211.562 240.578C212.506 240.578 213.319 240.799 214.003 241.242C214.687 241.678 215.211 242.29 215.575 243.078C215.94 243.859 216.122 244.771 216.122 245.812V246.467H207.743V245.109H215.263L214.423 246.35V245.686C214.423 244.865 214.299 244.191 214.052 243.664C213.804 243.137 213.466 242.743 213.036 242.482C212.606 242.222 212.112 242.092 211.552 242.092C210.992 242.092 210.491 242.229 210.048 242.502C209.605 242.775 209.254 243.179 208.993 243.713C208.739 244.247 208.612 244.904 208.612 245.686V246.35C208.612 247.092 208.736 247.727 208.983 248.254C209.237 248.775 209.595 249.175 210.058 249.455C210.526 249.735 211.076 249.875 211.708 249.875C212.17 249.875 212.574 249.81 212.919 249.68C213.271 249.549 213.56 249.383 213.788 249.182C214.016 248.973 214.175 248.755 214.267 248.527L214.306 248.439H215.995L215.976 248.518C215.891 248.889 215.731 249.247 215.497 249.592C215.263 249.93 214.963 250.236 214.599 250.51C214.234 250.783 213.804 250.998 213.31 251.154C212.815 251.311 212.268 251.389 211.669 251.389ZM222.157 251.389C221.376 251.389 220.686 251.268 220.087 251.027C219.494 250.786 219.019 250.448 218.661 250.012C218.31 249.576 218.101 249.064 218.036 248.479V248.459H219.765V248.479C219.901 248.934 220.172 249.299 220.575 249.572C220.985 249.839 221.529 249.973 222.206 249.973C222.681 249.973 223.095 249.908 223.446 249.777C223.798 249.641 224.075 249.452 224.276 249.211C224.478 248.97 224.579 248.693 224.579 248.381V248.361C224.579 248.003 224.442 247.704 224.169 247.463C223.896 247.215 223.443 247.014 222.812 246.857L221.181 246.467C220.53 246.311 219.993 246.109 219.569 245.861C219.146 245.607 218.834 245.298 218.632 244.934C218.43 244.562 218.329 244.13 218.329 243.635V243.625C218.329 243.039 218.495 242.518 218.827 242.062C219.166 241.6 219.628 241.239 220.214 240.979C220.8 240.712 221.461 240.578 222.196 240.578C222.938 240.578 223.59 240.699 224.149 240.939C224.716 241.174 225.168 241.506 225.507 241.936C225.852 242.365 226.057 242.867 226.122 243.439L226.132 243.469H224.472V243.449C224.368 243.02 224.12 242.671 223.729 242.404C223.339 242.131 222.828 241.994 222.196 241.994C221.78 241.994 221.412 242.059 221.093 242.189C220.774 242.32 220.523 242.502 220.341 242.736C220.159 242.964 220.067 243.234 220.067 243.547V243.566C220.067 243.794 220.126 244.003 220.243 244.191C220.367 244.374 220.556 244.533 220.81 244.67C221.063 244.807 221.389 244.924 221.786 245.021L223.407 245.412C224.41 245.653 225.146 245.998 225.614 246.447C226.083 246.89 226.317 247.486 226.317 248.234V248.254C226.317 248.872 226.135 249.419 225.771 249.895C225.406 250.363 224.911 250.731 224.286 250.998C223.661 251.258 222.951 251.389 222.157 251.389ZM232.196 251.389C231.415 251.389 230.725 251.268 230.126 251.027C229.534 250.786 229.058 250.448 228.7 250.012C228.349 249.576 228.14 249.064 228.075 248.479V248.459H229.804V248.479C229.94 248.934 230.211 249.299 230.614 249.572C231.024 249.839 231.568 249.973 232.245 249.973C232.72 249.973 233.134 249.908 233.485 249.777C233.837 249.641 234.114 249.452 234.315 249.211C234.517 248.97 234.618 248.693 234.618 248.381V248.361C234.618 248.003 234.481 247.704 234.208 247.463C233.935 247.215 233.482 247.014 232.851 246.857L231.22 246.467C230.569 246.311 230.032 246.109 229.608 245.861C229.185 245.607 228.873 245.298 228.671 244.934C228.469 244.562 228.368 244.13 228.368 243.635V243.625C228.368 243.039 228.534 242.518 228.866 242.062C229.205 241.6 229.667 241.239 230.253 240.979C230.839 240.712 231.5 240.578 232.235 240.578C232.978 240.578 233.629 240.699 234.188 240.939C234.755 241.174 235.207 241.506 235.546 241.936C235.891 242.365 236.096 242.867 236.161 243.439L236.171 243.469H234.511V243.449C234.407 243.02 234.159 242.671 233.769 242.404C233.378 242.131 232.867 241.994 232.235 241.994C231.819 241.994 231.451 242.059 231.132 242.189C230.813 242.32 230.562 242.502 230.38 242.736C230.198 242.964 230.106 243.234 230.106 243.547V243.566C230.106 243.794 230.165 244.003 230.282 244.191C230.406 244.374 230.595 244.533 230.849 244.67C231.103 244.807 231.428 244.924 231.825 245.021L233.446 245.412C234.449 245.653 235.185 245.998 235.653 246.447C236.122 246.89 236.356 247.486 236.356 248.234V248.254C236.356 248.872 236.174 249.419 235.81 249.895C235.445 250.363 234.95 250.731 234.325 250.998C233.7 251.258 232.991 251.389 232.196 251.389ZM240.087 251.311C239.748 251.311 239.459 251.19 239.218 250.949C238.977 250.708 238.856 250.419 238.856 250.08C238.856 249.735 238.977 249.445 239.218 249.211C239.459 248.97 239.748 248.85 240.087 248.85C240.432 248.85 240.722 248.97 240.956 249.211C241.197 249.445 241.317 249.735 241.317 250.08C241.317 250.419 241.197 250.708 240.956 250.949C240.722 251.19 240.432 251.311 240.087 251.311Z" fill="white"/>
<path d="M50.5842 75.2031V72.2591H56.7922C58.1575 72.2591 59.2882 71.9498 60.1842 71.3311C61.0802 70.7125 61.7415 69.8378 62.1682 68.7071C62.6162 67.5765 62.8402 66.2431 62.8402 64.7071C62.8402 63.3845 62.7015 62.2431 62.4242 61.2831C62.1469 60.3018 61.7202 59.5018 61.1442 58.8831C60.5895 58.2645 59.8749 57.8058 59.0002 57.5071C58.1469 57.1871 57.1442 57.0271 55.9922 57.0271H50.5842V54.0831H55.8962C58.3282 54.0831 60.3229 54.4991 61.8802 55.3311C63.4375 56.1631 64.5895 57.3578 65.3362 58.9151C66.0829 60.4511 66.4562 62.3071 66.4562 64.4831C66.4562 65.9765 66.2855 67.3098 65.9442 68.4831C65.6029 69.6351 65.1335 70.6378 64.5362 71.4911C63.9602 72.3231 63.2669 73.0165 62.4562 73.5711C61.6669 74.1258 60.7922 74.5418 59.8322 74.8191C58.8935 75.0751 57.9122 75.2031 56.8882 75.2031H50.5842ZM48.8242 75.2031V54.0831H52.3122V75.2031H48.8242ZM70.7252 75.2031V58.5631H74.1812V75.2031H70.7252ZM72.4532 55.7791C71.7065 55.7791 71.1412 55.6298 70.7572 55.3311C70.3732 55.0111 70.1812 54.5418 70.1812 53.9231C70.1812 53.3258 70.3732 52.8671 70.7572 52.5471C71.1412 52.2271 71.7065 52.0671 72.4532 52.0671C73.2212 52.0671 73.7972 52.2271 74.1812 52.5471C74.5652 52.8671 74.7572 53.3258 74.7572 53.9231C74.7572 54.5418 74.5652 55.0111 74.1812 55.3311C73.7972 55.6298 73.2212 55.7791 72.4532 55.7791ZM85.3424 75.6191C84.1904 75.6191 83.1664 75.5018 82.2704 75.2671C81.3744 75.0325 80.6064 74.7018 79.9664 74.2751C79.3478 73.8271 78.8678 73.2938 78.5264 72.6751C78.1851 72.0565 77.9824 71.3845 77.9184 70.6591L80.7344 69.7311C80.7344 70.3498 80.9264 70.9045 81.3104 71.3951C81.6944 71.8858 82.2384 72.2698 82.9424 72.5471C83.6678 72.8031 84.5318 72.9311 85.5344 72.9311C86.7078 72.9311 87.6144 72.7391 88.2544 72.3551C88.8944 71.9711 89.2144 71.4378 89.2144 70.7551C89.2144 70.2431 89.0331 69.8378 88.6704 69.5391C88.3291 69.2405 87.8278 68.9951 87.1664 68.8031C86.5264 68.6111 85.7691 68.4298 84.8944 68.2591C84.1051 68.0885 83.3158 67.8965 82.5264 67.6831C81.7584 67.4485 81.0438 67.1498 80.3824 66.7871C79.7424 66.4245 79.2198 65.9551 78.8144 65.3791C78.4304 64.7818 78.2384 64.0351 78.2384 63.1391C78.2384 62.1151 78.5051 61.2405 79.0384 60.5151C79.5718 59.7685 80.3398 59.1925 81.3424 58.7871C82.3664 58.3605 83.5824 58.1471 84.9904 58.1471C86.3558 58.1471 87.5291 58.3498 88.5104 58.7551C89.5131 59.1605 90.3131 59.7258 90.9104 60.4511C91.5078 61.1765 91.8704 62.0298 91.9984 63.0111L89.0544 63.8751C89.0118 63.2138 88.8091 62.6591 88.4464 62.2111C88.1051 61.7631 87.6358 61.4325 87.0384 61.2191C86.4411 60.9845 85.7371 60.8671 84.9264 60.8671C83.8598 60.8671 83.0171 61.0591 82.3984 61.4431C81.8011 61.8271 81.5024 62.3498 81.5024 63.0111C81.5024 63.5231 81.6838 63.9391 82.0464 64.2591C82.4304 64.5578 82.9424 64.8031 83.5824 64.9951C84.2438 65.1658 84.9904 65.3365 85.8224 65.5071C86.6758 65.6778 87.4971 65.8698 88.2864 66.0831C89.0758 66.2965 89.7798 66.5845 90.3984 66.9471C91.0384 67.2885 91.5398 67.7578 91.9024 68.3551C92.2864 68.9311 92.4784 69.6671 92.4784 70.5631C92.4784 71.6511 92.1798 72.5791 91.5824 73.3471C91.0064 74.0938 90.1851 74.6591 89.1184 75.0431C88.0518 75.4271 86.7931 75.6191 85.3424 75.6191ZM103.521 75.6191C102.092 75.6191 100.855 75.3951 99.8092 74.9471C98.7852 74.4991 97.9425 73.8805 97.2812 73.0911C96.6199 72.3018 96.1292 71.3951 95.8092 70.3711C95.4892 69.3471 95.3292 68.2485 95.3292 67.0751C95.3292 65.8165 95.4999 64.6538 95.8412 63.5871C96.1825 62.4991 96.6839 61.5498 97.3452 60.7391C98.0279 59.9071 98.8705 59.2671 99.8732 58.8191C100.876 58.3711 102.039 58.1471 103.361 58.1471C104.663 58.1471 105.793 58.3711 106.753 58.8191C107.735 59.2458 108.535 59.8645 109.153 60.6751C109.772 61.4645 110.177 62.3925 110.369 63.4591L107.105 64.4511C107.041 63.8325 106.86 63.2565 106.561 62.7231C106.263 62.1898 105.836 61.7738 105.281 61.4751C104.727 61.1551 104.055 60.9951 103.265 60.9951C102.519 60.9951 101.868 61.1445 101.313 61.4431C100.759 61.7205 100.3 62.1365 99.9372 62.6911C99.5745 63.2245 99.2972 63.8538 99.1052 64.5791C98.9345 65.3045 98.8492 66.1045 98.8492 66.9791C98.8492 68.1738 99.0092 69.2191 99.3292 70.1151C99.6705 70.9898 100.193 71.6725 100.897 72.1631C101.601 72.6325 102.487 72.8671 103.553 72.8671C104.449 72.8671 105.185 72.7071 105.761 72.3871C106.337 72.0671 106.785 71.6405 107.105 71.1071C107.425 70.5525 107.639 69.9125 107.745 69.1871L110.849 69.9231C110.721 70.7978 110.465 71.5978 110.081 72.3231C109.697 73.0271 109.196 73.6245 108.577 74.1151C107.959 74.6058 107.223 74.9791 106.369 75.2351C105.537 75.4911 104.588 75.6191 103.521 75.6191ZM121.239 75.6191C119.639 75.6191 118.221 75.2778 116.983 74.5951C115.746 73.9125 114.775 72.9205 114.071 71.6191C113.389 70.3178 113.047 68.7178 113.047 66.8191C113.047 64.8778 113.41 63.2671 114.135 61.9871C114.861 60.7071 115.831 59.7471 117.047 59.1071C118.285 58.4671 119.671 58.1471 121.207 58.1471C122.786 58.1471 124.194 58.4778 125.431 59.1391C126.669 59.8005 127.639 60.7818 128.343 62.0831C129.069 63.3845 129.431 65.0058 129.431 66.9471C129.431 68.8671 129.069 70.4778 128.343 71.7791C127.639 73.0591 126.669 74.0191 125.431 74.6591C124.194 75.2991 122.797 75.6191 121.239 75.6191ZM121.367 72.8671C122.327 72.8671 123.149 72.6431 123.831 72.1951C124.514 71.7471 125.037 71.0858 125.399 70.2111C125.762 69.3365 125.943 68.2911 125.943 67.0751C125.943 65.8165 125.751 64.7391 125.367 63.8431C124.983 62.9258 124.429 62.2218 123.703 61.7311C122.999 61.2405 122.135 60.9951 121.111 60.9951C120.194 60.9951 119.383 61.2191 118.679 61.6671C117.997 62.0938 117.474 62.7445 117.111 63.6191C116.749 64.4725 116.567 65.5178 116.567 66.7551C116.567 68.6965 116.994 70.2005 117.847 71.2671C118.701 72.3338 119.874 72.8671 121.367 72.8671ZM136.88 75.2031L131.056 58.5951H134.928L139.088 72.3551H139.568L143.76 58.5951H147.504L141.68 75.2031H136.88ZM157.397 75.6191C156.074 75.6191 154.901 75.4271 153.877 75.0431C152.853 74.6378 151.989 74.0725 151.285 73.3471C150.581 72.6005 150.048 71.7151 149.685 70.6911C149.322 69.6458 149.141 68.4725 149.141 67.1711C149.141 65.8698 149.322 64.6751 149.685 63.5871C150.048 62.4778 150.56 61.5178 151.221 60.7071C151.904 59.8965 152.736 59.2671 153.717 58.8191C154.72 58.3711 155.85 58.1471 157.109 58.1471C158.282 58.1471 159.328 58.3391 160.245 58.7231C161.184 59.1071 161.973 59.6938 162.613 60.4831C163.253 61.2511 163.733 62.2218 164.053 63.3951C164.373 64.5471 164.49 65.9018 164.405 67.4591L151.381 67.5551V65.3791L162.357 65.2831L161.141 66.6271C161.269 65.3471 161.162 64.2911 160.821 63.4591C160.48 62.6271 159.989 62.0085 159.349 61.6031C158.709 61.1978 157.973 60.9951 157.141 60.9951C156.202 60.9951 155.381 61.2405 154.677 61.7311C153.994 62.2005 153.461 62.8938 153.077 63.8111C152.693 64.7285 152.501 65.8271 152.501 67.1071C152.501 69.0271 152.928 70.4778 153.781 71.4591C154.634 72.4191 155.85 72.8991 157.429 72.8991C158.09 72.8991 158.656 72.8245 159.125 72.6751C159.594 72.5045 159.989 72.2911 160.309 72.0351C160.629 71.7578 160.885 71.4378 161.077 71.0751C161.29 70.6911 161.461 70.2965 161.589 69.8911L164.629 70.5951C164.437 71.3845 164.138 72.0885 163.733 72.7071C163.349 73.3045 162.858 73.8271 162.261 74.2751C161.664 74.7018 160.96 75.0325 160.149 75.2671C159.36 75.5018 158.442 75.6191 157.397 75.6191ZM168.319 75.2031V66.5311V58.5631H171.327L171.167 64.3231H171.711C171.903 63.0218 172.202 61.9125 172.607 60.9951C173.012 60.0778 173.567 59.3845 174.271 58.9151C174.975 58.4245 175.85 58.1791 176.895 58.1791C177.108 58.1791 177.343 58.1898 177.599 58.2111C177.855 58.2325 178.143 58.2965 178.463 58.4031L178.303 62.0511C177.983 61.9231 177.652 61.8378 177.311 61.7951C176.97 61.7311 176.66 61.6991 176.383 61.6991C175.53 61.6991 174.804 61.9445 174.207 62.4351C173.61 62.9045 173.108 63.5658 172.703 64.4191C172.319 65.2511 172.02 66.2218 171.807 67.3311V75.2031H168.319ZM187.524 80.8351C186.671 80.8351 185.807 80.7391 184.932 80.5471C184.079 80.3765 183.289 80.0991 182.564 79.7151C181.839 79.3525 181.231 78.8725 180.74 78.2751L182.148 75.5231C182.703 76.2485 183.449 76.7925 184.388 77.1551C185.327 77.5391 186.319 77.7311 187.364 77.7311C188.559 77.7311 189.54 77.4751 190.308 76.9631C191.097 76.4725 191.695 75.7045 192.1 74.6591C192.505 73.6138 192.719 72.3018 192.74 70.7231L193.028 67.5231H192.42C192.185 69.0378 191.812 70.2538 191.3 71.1711C190.809 72.0885 190.201 72.7498 189.476 73.1551C188.751 73.5605 187.897 73.7631 186.916 73.7631C185.7 73.7631 184.676 73.4645 183.844 72.8671C183.033 72.2485 182.415 71.3418 181.988 70.1471C181.583 68.9311 181.38 67.4485 181.38 65.6991V58.5631H184.836V64.9311C184.836 66.9578 185.103 68.4405 185.636 69.3791C186.191 70.3178 187.012 70.7871 188.1 70.7871C188.697 70.7871 189.231 70.6378 189.7 70.3391C190.169 70.0405 190.575 69.6031 190.916 69.0271C191.279 68.4298 191.556 67.6938 191.748 66.8191C191.961 65.9445 192.089 64.9311 192.132 63.7791V58.5631H195.62V70.8831C195.62 72.2058 195.513 73.4005 195.3 74.4671C195.087 75.5125 194.756 76.4298 194.308 77.2191C193.881 78.0298 193.348 78.7018 192.708 79.2351C192.068 79.7898 191.311 80.1951 190.436 80.4511C189.583 80.7071 188.612 80.8351 187.524 80.8351ZM64.1522 113.619C63.0429 113.619 61.9655 113.352 60.9202 112.819C59.8962 112.286 58.9255 111.571 58.0082 110.675C57.0909 109.758 56.2589 108.744 55.5122 107.635C54.7655 106.504 54.1149 105.342 53.5602 104.147C53.0055 102.931 52.5789 101.747 52.2802 100.595C51.9815 99.4431 51.8322 98.3978 51.8322 97.4591C51.8322 96.4138 52.0349 95.4538 52.4402 94.5791C52.8669 93.6831 53.5069 92.9685 54.3602 92.4351C55.2349 91.9018 56.3442 91.6351 57.6882 91.6351C58.9042 91.6351 59.9282 91.8591 60.7602 92.3071C61.5922 92.7338 62.2215 93.3098 62.6482 94.0351C63.0962 94.7605 63.3202 95.5711 63.3202 96.4671C63.3202 97.1925 63.1495 97.8965 62.8082 98.5791C62.4882 99.2405 61.9335 99.8485 61.1442 100.403C60.3549 100.958 59.2882 101.416 57.9442 101.779L57.6882 101.235C58.5415 100.552 59.1495 99.8805 59.5122 99.2191C59.8962 98.5365 60.0882 97.8325 60.0882 97.1071C60.0882 96.3605 59.8855 95.7311 59.4802 95.2191C59.0962 94.7071 58.5095 94.4511 57.7202 94.4511C57.1442 94.4511 56.6749 94.5898 56.3122 94.8671C55.9495 95.1231 55.6829 95.4858 55.5122 95.9551C55.3629 96.4031 55.2882 96.9151 55.2882 97.4911C55.2882 98.1738 55.4055 98.9738 55.6402 99.8911C55.8749 100.808 56.1949 101.758 56.6002 102.739C57.0269 103.72 57.5175 104.68 58.0722 105.619C58.6269 106.558 59.2349 107.411 59.8962 108.179C60.5575 108.926 61.2402 109.523 61.9442 109.971C62.6695 110.419 63.3949 110.643 64.1202 110.643C64.7175 110.643 65.1869 110.494 65.5282 110.195C65.8909 109.875 66.0722 109.47 66.0722 108.979C66.0722 108.446 65.8695 107.923 65.4642 107.411C65.0802 106.899 64.5149 106.44 63.7682 106.035C63.0429 105.608 62.1469 105.288 61.0802 105.075V102.035H68.4722V104.723L62.6482 103.923V104.563C64.8455 104.968 66.4669 105.598 67.5122 106.451C68.5575 107.304 69.0802 108.36 69.0802 109.619C69.0802 110.366 68.9202 111.006 68.6002 111.539C68.2802 112.051 67.8642 112.456 67.3522 112.755C66.8402 113.054 66.2962 113.267 65.7202 113.395C65.1655 113.544 64.6429 113.619 64.1522 113.619ZM52.7602 113.619C51.6722 113.619 50.7015 113.416 49.8482 113.011C49.0162 112.584 48.3655 111.998 47.8962 111.251C47.4482 110.483 47.2242 109.598 47.2242 108.595C47.2242 107.699 47.4055 106.91 47.7682 106.227C48.1522 105.544 48.6535 104.979 49.2722 104.531C49.9122 104.062 50.6269 103.688 51.4162 103.411C52.2055 103.112 53.0055 102.91 53.8162 102.803L53.9762 103.635C52.8455 104.147 51.9815 104.766 51.3842 105.491C50.8082 106.195 50.5202 106.963 50.5202 107.795C50.5202 108.414 50.6589 108.979 50.9362 109.491C51.2135 109.982 51.6189 110.376 52.1522 110.675C52.7069 110.952 53.3789 111.091 54.1682 111.091C54.8935 111.091 55.5442 110.942 56.1202 110.643C56.6962 110.344 57.2402 109.95 57.7522 109.459L58.5522 110.675H57.7842C57.4642 111.272 57.0695 111.795 56.6002 112.243C56.1309 112.67 55.5762 113 54.9362 113.235C54.3175 113.491 53.5922 113.619 52.7602 113.619ZM88.5027 113.619C87.116 113.619 85.8787 113.48 84.7907 113.203C83.724 112.904 82.8174 112.478 82.0707 111.923C81.3454 111.347 80.7907 110.643 80.4067 109.811C80.044 108.958 79.8734 107.976 79.8947 106.867L82.9987 106.035C82.956 107.102 83.1587 107.987 83.6067 108.691C84.0547 109.395 84.716 109.928 85.5907 110.291C86.4867 110.632 87.5107 110.803 88.6627 110.803C89.7934 110.803 90.7427 110.664 91.5107 110.387C92.2787 110.11 92.8547 109.736 93.2387 109.267C93.644 108.776 93.8467 108.222 93.8467 107.603C93.8467 106.899 93.6014 106.344 93.1107 105.939C92.6414 105.512 92.012 105.182 91.2227 104.947C90.4334 104.691 89.548 104.456 88.5667 104.243C87.564 104.03 86.572 103.784 85.5907 103.507C84.6094 103.23 83.7134 102.867 82.9027 102.419C82.1134 101.95 81.4734 101.352 80.9827 100.627C80.5134 99.9018 80.2787 98.9845 80.2787 97.8751C80.2787 96.5951 80.5987 95.4965 81.2387 94.5791C81.8787 93.6618 82.7854 92.9471 83.9587 92.4351C85.1534 91.9231 86.5614 91.6671 88.1827 91.6671C89.804 91.6671 91.2227 91.9231 92.4387 92.4351C93.676 92.9258 94.6467 93.6511 95.3507 94.6111C96.076 95.5498 96.4494 96.6911 96.4707 98.0351L93.2707 98.8671C93.2707 98.1418 93.1427 97.5018 92.8867 96.9471C92.652 96.3925 92.3107 95.9338 91.8627 95.5711C91.4147 95.2085 90.8814 94.9418 90.2627 94.7711C89.644 94.5791 88.94 94.4831 88.1507 94.4831C87.2334 94.4831 86.4334 94.6218 85.7507 94.8991C85.068 95.1551 84.5347 95.5178 84.1507 95.9871C83.788 96.4351 83.6067 96.9685 83.6067 97.5871C83.6067 98.3551 83.8734 98.9631 84.4067 99.4111C84.9614 99.8378 85.6867 100.19 86.5827 100.467C87.4787 100.723 88.4387 100.968 89.4627 101.203C90.38 101.395 91.2867 101.63 92.1827 101.907C93.1 102.163 93.932 102.515 94.6787 102.963C95.4467 103.411 96.0547 103.998 96.5027 104.723C96.972 105.448 97.2067 106.376 97.2067 107.507C97.2067 108.744 96.876 109.822 96.2147 110.739C95.5747 111.656 94.6147 112.371 93.3347 112.883C92.0547 113.374 90.444 113.619 88.5027 113.619ZM106.667 113.555C105.024 113.555 103.797 113.107 102.987 112.211C102.197 111.315 101.803 109.939 101.803 108.083V99.4111H99.3387L99.4027 96.5631H101.003C101.557 96.5631 101.973 96.4778 102.251 96.3071C102.528 96.1151 102.699 95.7845 102.763 95.3151L103.083 92.8511H105.163V96.5631H109.739V99.4751H105.163V107.987C105.163 108.819 105.355 109.416 105.739 109.779C106.123 110.142 106.688 110.323 107.435 110.323C107.84 110.323 108.245 110.28 108.651 110.195C109.077 110.088 109.483 109.896 109.867 109.619V112.979C109.227 113.192 108.64 113.342 108.107 113.427C107.573 113.512 107.093 113.555 106.667 113.555ZM113.319 113.203V104.531V96.5631H116.327L116.167 102.323H116.711C116.903 101.022 117.202 99.9125 117.607 98.9951C118.012 98.0778 118.567 97.3845 119.271 96.9151C119.975 96.4245 120.85 96.1791 121.895 96.1791C122.108 96.1791 122.343 96.1898 122.599 96.2111C122.855 96.2325 123.143 96.2965 123.463 96.4031L123.303 100.051C122.983 99.9231 122.652 99.8378 122.311 99.7951C121.97 99.7311 121.66 99.6991 121.383 99.6991C120.53 99.6991 119.804 99.9445 119.207 100.435C118.61 100.904 118.108 101.566 117.703 102.419C117.319 103.251 117.02 104.222 116.807 105.331V113.203H113.319ZM130.065 113.619C129.148 113.619 128.327 113.448 127.601 113.107C126.876 112.744 126.3 112.211 125.873 111.507C125.468 110.803 125.265 109.928 125.265 108.883C125.265 108.051 125.415 107.336 125.713 106.739C126.033 106.12 126.503 105.608 127.121 105.203C127.761 104.776 128.572 104.435 129.553 104.179C130.535 103.902 131.697 103.667 133.041 103.475C133.788 103.368 134.396 103.262 134.865 103.155C135.356 103.048 135.708 102.878 135.921 102.643C136.156 102.408 136.273 102.056 136.273 101.587C136.273 100.862 136.017 100.243 135.505 99.7311C135.015 99.1978 134.215 98.9311 133.105 98.9311C132.487 98.9311 131.868 99.0378 131.249 99.2511C130.652 99.4645 130.129 99.8165 129.681 100.307C129.255 100.776 128.967 101.416 128.817 102.227L125.681 101.235C125.873 100.424 126.183 99.7098 126.609 99.0911C127.036 98.4511 127.569 97.9178 128.209 97.4911C128.849 97.0431 129.585 96.7125 130.417 96.4991C131.271 96.2645 132.199 96.1471 133.201 96.1471C134.673 96.1471 135.889 96.3925 136.849 96.8831C137.809 97.3738 138.524 98.1311 138.993 99.1551C139.484 100.158 139.729 101.448 139.729 103.027V106.419C139.729 107.123 139.74 107.87 139.761 108.659C139.804 109.427 139.847 110.206 139.889 110.995C139.953 111.763 140.028 112.499 140.113 113.203H136.945C136.881 112.563 136.817 111.902 136.753 111.219C136.711 110.536 136.668 109.843 136.625 109.139H136.145C135.847 109.95 135.42 110.696 134.865 111.379C134.332 112.062 133.66 112.606 132.849 113.011C132.06 113.416 131.132 113.619 130.065 113.619ZM131.281 110.931C131.729 110.931 132.177 110.856 132.625 110.707C133.095 110.558 133.553 110.334 134.001 110.035C134.471 109.715 134.897 109.31 135.281 108.819C135.687 108.328 136.039 107.742 136.337 107.059L136.305 104.051L137.137 104.211C136.775 104.531 136.316 104.776 135.761 104.947C135.228 105.118 134.641 105.256 134.001 105.363C133.361 105.448 132.721 105.555 132.081 105.683C131.463 105.79 130.887 105.95 130.353 106.163C129.841 106.355 129.425 106.632 129.105 106.995C128.807 107.358 128.657 107.859 128.657 108.499C128.657 109.288 128.903 109.896 129.393 110.323C129.884 110.728 130.513 110.931 131.281 110.931ZM149.885 113.555C148.243 113.555 147.016 113.107 146.205 112.211C145.416 111.315 145.021 109.939 145.021 108.083V99.4111H142.557L142.621 96.5631H144.221C144.776 96.5631 145.192 96.4778 145.469 96.3071C145.747 96.1151 145.917 95.7845 145.981 95.3151L146.301 92.8511H148.381V96.5631H152.957V99.4751H148.381V107.987C148.381 108.819 148.573 109.416 148.957 109.779C149.341 110.142 149.907 110.323 150.653 110.323C151.059 110.323 151.464 110.28 151.869 110.195C152.296 110.088 152.701 109.896 153.085 109.619V112.979C152.445 113.192 151.859 113.342 151.325 113.427C150.792 113.512 150.312 113.555 149.885 113.555ZM163.709 113.619C162.387 113.619 161.213 113.427 160.189 113.043C159.165 112.638 158.301 112.072 157.597 111.347C156.893 110.6 156.36 109.715 155.997 108.691C155.635 107.646 155.453 106.472 155.453 105.171C155.453 103.87 155.635 102.675 155.997 101.587C156.36 100.478 156.872 99.5178 157.533 98.7071C158.216 97.8965 159.048 97.2671 160.029 96.8191C161.032 96.3711 162.163 96.1471 163.421 96.1471C164.595 96.1471 165.64 96.3391 166.557 96.7231C167.496 97.1071 168.285 97.6938 168.925 98.4831C169.565 99.2511 170.045 100.222 170.365 101.395C170.685 102.547 170.803 103.902 170.717 105.459L157.693 105.555V103.379L168.669 103.283L167.453 104.627C167.581 103.347 167.475 102.291 167.133 101.459C166.792 100.627 166.301 100.008 165.661 99.6031C165.021 99.1978 164.285 98.9951 163.453 98.9951C162.515 98.9951 161.693 99.2405 160.989 99.7311C160.307 100.2 159.773 100.894 159.389 101.811C159.005 102.728 158.813 103.827 158.813 105.107C158.813 107.027 159.24 108.478 160.093 109.459C160.947 110.419 162.163 110.899 163.741 110.899C164.403 110.899 164.968 110.824 165.437 110.675C165.907 110.504 166.301 110.291 166.621 110.035C166.941 109.758 167.197 109.438 167.389 109.075C167.603 108.691 167.773 108.296 167.901 107.891L170.941 108.595C170.749 109.384 170.451 110.088 170.045 110.707C169.661 111.304 169.171 111.827 168.573 112.275C167.976 112.702 167.272 113.032 166.461 113.267C165.672 113.502 164.755 113.619 163.709 113.619ZM180.967 118.899C179.175 118.899 177.703 118.76 176.551 118.483C175.421 118.206 174.589 117.79 174.055 117.235C173.522 116.68 173.255 115.998 173.255 115.187C173.255 114.206 173.639 113.406 174.407 112.787C175.175 112.147 176.338 111.742 177.895 111.571V110.931C176.743 110.952 175.869 110.835 175.271 110.579C174.695 110.302 174.407 109.875 174.407 109.299C174.407 108.702 174.695 108.2 175.271 107.795C175.869 107.368 176.829 106.995 178.151 106.675V106.067C176.85 106.024 175.847 105.619 175.143 104.851C174.439 104.083 174.087 103.102 174.087 101.907C174.087 100.819 174.375 99.8698 174.951 99.0591C175.549 98.2271 176.413 97.5871 177.543 97.1391C178.695 96.6698 180.082 96.4351 181.703 96.4351H189.735V99.2511L184.583 98.4831V99.1231C185.863 99.3578 186.823 99.7631 187.463 100.339C188.103 100.915 188.423 101.694 188.423 102.675C188.423 103.55 188.146 104.328 187.591 105.011C187.058 105.694 186.269 106.227 185.223 106.611C184.178 106.974 182.898 107.155 181.383 107.155C181.106 107.155 180.807 107.144 180.487 107.123C180.167 107.102 179.698 107.048 179.079 106.963C178.567 107.283 178.151 107.582 177.831 107.859C177.533 108.136 177.383 108.382 177.383 108.595C177.383 108.808 177.511 108.979 177.767 109.107C178.045 109.235 178.386 109.32 178.791 109.363C179.197 109.406 179.581 109.427 179.943 109.427H184.039C184.466 109.427 185.01 109.47 185.671 109.555C186.333 109.619 186.994 109.79 187.655 110.067C188.317 110.344 188.871 110.782 189.319 111.379C189.767 111.955 189.991 112.766 189.991 113.811C189.991 115.006 189.65 115.976 188.967 116.723C188.285 117.47 187.271 118.014 185.927 118.355C184.583 118.718 182.93 118.899 180.967 118.899ZM181.191 116.051C182.557 116.051 183.655 115.966 184.487 115.795C185.319 115.646 185.927 115.39 186.311 115.027C186.695 114.664 186.887 114.206 186.887 113.651C186.887 113.139 186.759 112.744 186.503 112.467C186.247 112.168 185.927 111.966 185.543 111.859C185.181 111.731 184.807 111.656 184.423 111.635C184.039 111.614 183.709 111.603 183.431 111.603H179.623C178.493 111.795 177.703 112.126 177.255 112.595C176.807 113.043 176.583 113.544 176.583 114.099C176.583 114.632 176.775 115.038 177.159 115.315C177.543 115.614 178.077 115.806 178.759 115.891C179.463 115.998 180.274 116.051 181.191 116.051ZM181.415 105.107C182.653 105.107 183.581 104.84 184.199 104.307C184.839 103.752 185.159 103.027 185.159 102.131C185.159 101.171 184.839 100.392 184.199 99.7951C183.559 99.1765 182.61 98.8671 181.351 98.8671C180.114 98.8671 179.165 99.1658 178.503 99.7631C177.863 100.36 177.543 101.118 177.543 102.035C177.543 102.654 177.693 103.198 177.991 103.667C178.29 104.115 178.717 104.467 179.271 104.723C179.847 104.979 180.562 105.107 181.415 105.107ZM199.524 118.835C198.671 118.835 197.807 118.739 196.932 118.547C196.079 118.376 195.289 118.099 194.564 117.715C193.839 117.352 193.231 116.872 192.74 116.275L194.148 113.523C194.703 114.248 195.449 114.792 196.388 115.155C197.327 115.539 198.319 115.731 199.364 115.731C200.559 115.731 201.54 115.475 202.308 114.963C203.097 114.472 203.695 113.704 204.1 112.659C204.505 111.614 204.719 110.302 204.74 108.723L205.028 105.523H204.42C204.185 107.038 203.812 108.254 203.3 109.171C202.809 110.088 202.201 110.75 201.476 111.155C200.751 111.56 199.897 111.763 198.916 111.763C197.7 111.763 196.676 111.464 195.844 110.867C195.033 110.248 194.415 109.342 193.988 108.147C193.583 106.931 193.38 105.448 193.38 103.699V96.5631H196.836V102.931C196.836 104.958 197.103 106.44 197.636 107.379C198.191 108.318 199.012 108.787 200.1 108.787C200.697 108.787 201.231 108.638 201.7 108.339C202.169 108.04 202.575 107.603 202.916 107.027C203.279 106.43 203.556 105.694 203.748 104.819C203.961 103.944 204.089 102.931 204.132 101.779V96.5631H207.62V108.883C207.62 110.206 207.513 111.4 207.3 112.467C207.087 113.512 206.756 114.43 206.308 115.219C205.881 116.03 205.348 116.702 204.708 117.235C204.068 117.79 203.311 118.195 202.436 118.451C201.583 118.707 200.612 118.835 199.524 118.835Z" fill="white"/>
<rect x="318.2" y="54.2031" width="56" height="56" rx="28" fill="white"/>
<path d="M346.778 93.2031V73.6406H346.716L340.747 77.7969V74.9688L346.747 70.6562H349.497V93.2031H346.778Z" fill="#131313"/>
<defs>
<filter id="filter0_d_2152_2362" x="0.00019455" y="0.00312424" width="434.4" height="357.4" filterUnits="userSpaceOnUse" color-interpolation-filters="sRGB">
<feFlood flood-opacity="0" result="BackgroundImageFix"/>
<feColorMatrix in="SourceAlpha" type="matrix" values="0 0 0 0 0 0 0 0 0 0 0 0 0 0 0 0 0 0 127 0" result="hardAlpha"/>
<feOffset dx="3" dy="3"/>
<feGaussianBlur stdDeviation="8.6"/>
<feComposite in2="hardAlpha" operator="out"/>
<feColorMatrix type="matrix" values="0 0 0 0 0 0 0 0 0 0 0 0 0 0 0 0 0 0 0.1 0"/>
<feBlend mode="normal" in2="BackgroundImageFix" result="effect1_dropShadow_2152_2362"/>
<feBlend mode="normal" in="SourceGraphic" in2="effect1_dropShadow_2152_2362" result="shape"/>
</filter>
</defs>
</svg>
